<svg width="363" height="326" viewBox="0 0 363 326" fill="none" xmlns="http://www.w3.org/2000/svg">
<path d="M172.956 12.4932C177.704 8.48844 184.648 8.48836 189.397 12.4932L304.691 109.729C307.564 112.152 309.221 115.719 309.221 119.477V269.904C309.221 276.947 303.513 282.656 296.47 282.656H65.8823C58.8399 282.656 53.1304 276.947 53.1304 269.904V119.477C53.1305 115.719 54.7889 112.152 57.6616 109.729L172.956 12.4932Z" fill="black" stroke="white" stroke-width="8.50093"/>
<path d="M222.087 188.382L308.556 115.825" stroke="white" stroke-width="8.50093" stroke-linecap="round"/>
<path d="M144.913 188.382L58.444 115.825" stroke="white" stroke-width="8.50093" stroke-linecap="round"/>
<path d="M275.218 22.3149C278.739 22.3151 281.593 25.1698 281.593 28.6909V120.349C281.593 122.366 280.638 124.265 279.019 125.467L210.617 176.263C208.057 178.164 204.483 177.89 202.094 175.777C196.922 171.203 187.849 164.138 181.176 164.174C174.805 164.209 166.672 170.897 161.87 175.449C159.483 177.713 155.774 178.09 153.126 176.137L84.4133 125.467C82.7835 124.265 81.8215 122.36 81.8215 120.335V28.6909C81.8215 25.1697 84.6763 22.3149 88.1975 22.3149H275.218ZM184.74 50.7729C183.785 47.8359 179.629 47.8359 178.675 50.7729L170.494 75.9517C170.068 77.2651 168.843 78.1548 167.462 78.1548H140.989C137.9 78.1548 136.616 82.1062 139.115 83.9214L160.532 99.4829C161.65 100.295 162.117 101.733 161.691 103.046L153.51 128.226C152.556 131.163 155.917 133.605 158.415 131.79L179.833 116.228C180.951 115.416 182.464 115.416 183.581 116.228L204.999 131.79C207.497 133.605 210.859 131.163 209.906 128.226L201.724 103.046C201.297 101.733 201.765 100.295 202.882 99.4829L224.3 83.9214C226.798 82.1063 225.515 78.1551 222.427 78.1548H195.952C194.571 78.1548 193.347 77.2651 192.92 75.9517L184.74 50.7729Z" fill="#CAAC4C"/>
<path d="M178.675 50.773C179.63 47.836 183.785 47.836 184.739 50.773L192.92 75.9518C193.347 77.2652 194.571 78.1545 195.952 78.1545H222.426C225.515 78.1545 226.799 82.1062 224.3 83.9214L202.882 99.4827C201.765 100.294 201.297 101.733 201.724 103.047L209.905 128.226C210.859 131.163 207.498 133.605 204.999 131.79L183.581 116.228C182.464 115.417 180.951 115.417 179.833 116.228L158.415 131.79C155.917 133.605 152.555 131.163 153.51 128.226L161.691 103.047C162.117 101.733 161.65 100.294 160.533 99.4827L139.114 83.9214C136.616 82.1062 137.9 78.1545 140.988 78.1545H167.463C168.844 78.1545 170.068 77.2652 170.494 75.9518L178.675 50.773Z" fill="white"/>
<path d="M176.181 182.088C179.16 179.925 183.193 179.925 186.172 182.088L303.821 267.542C310.485 272.382 307.062 282.921 298.826 282.921H63.5264C55.2909 282.921 51.867 272.382 58.5303 267.542L176.181 182.088Z" fill="black" stroke="white" stroke-width="8.50093"/>
</svg>
