<svg width="1734" height="326" viewBox="0 0 1734 326" fill="none" xmlns="http://www.w3.org/2000/svg">
<path d="M28.5257 76.9989H70.8023C76.3611 76.9989 80.7497 75.731 83.968 73.1954C87.2838 70.5623 88.9417 66.9539 88.9417 62.3703C88.9417 57.7867 87.2838 54.227 83.968 51.6914C80.7497 49.1558 76.3611 47.888 70.8023 47.888H24.8686L36.1326 35.1611V138H11.264V28.2857H73.728C81.725 28.2857 88.7467 29.7486 94.7931 32.6743C100.84 35.5025 105.57 39.4522 108.983 44.5234C112.396 49.5947 114.103 55.5436 114.103 62.3703C114.103 69.0994 112.396 74.9996 108.983 80.0709C105.57 85.1421 100.84 89.1406 94.7931 92.0663C88.7467 94.8945 81.725 96.3086 73.728 96.3086H28.5257V76.9989ZM47.5429 86.6537H75.9223L117.321 138H88.2103L47.5429 86.6537ZM240.944 73.6343V92.6514H162.389V73.6343H240.944ZM179.065 83.1429L171.751 129.662L160.926 117.374H245.479V138H146.736L155.221 83.1429L146.736 28.2857H244.747V48.912H160.926L171.751 36.624L179.065 83.1429ZM602.069 114.887V94.6994H678.137V114.887H602.069ZM656.633 28.2857L707.979 138H681.502L636.592 38.3794H644.784L599.874 138H573.397L624.743 28.2857H656.633ZM862.355 127.906H853.871L884.445 28.2857H910.483L875.229 138H843.485L808.961 40.8663H819.786L785.263 138H753.519L718.264 28.2857H744.595L774.877 127.906L766.685 127.76L801.208 28.2857H827.686L862.355 127.906ZM949.463 114.887V94.6994H1025.53V114.887H949.463ZM1004.03 28.2857L1055.37 138H1028.9L983.986 38.3794H992.178L947.269 138H920.791L972.137 28.2857H1004.03ZM1102 76.9989H1144.28C1149.84 76.9989 1154.22 75.731 1157.44 73.1954C1160.76 70.5623 1162.42 66.9539 1162.42 62.3703C1162.42 57.7867 1160.76 54.227 1157.44 51.6914C1154.22 49.1558 1149.84 47.888 1144.28 47.888H1098.34L1109.61 35.1611V138H1084.74V28.2857H1147.2C1155.2 28.2857 1162.22 29.7486 1168.27 32.6743C1174.31 35.5025 1179.04 39.4522 1182.46 44.5234C1185.87 49.5947 1187.58 55.5436 1187.58 62.3703C1187.58 69.0994 1185.87 74.9996 1182.46 80.0709C1179.04 85.1421 1174.31 89.1406 1168.27 92.0663C1162.22 94.8945 1155.2 96.3086 1147.2 96.3086H1102V76.9989ZM1121.02 86.6537H1149.4L1190.8 138H1161.68L1121.02 86.6537ZM1275.8 28.2857C1288.57 28.2857 1299.74 30.5775 1309.3 35.1611C1318.95 39.7448 1326.46 46.1326 1331.83 54.3246C1337.19 62.5166 1339.87 72.1227 1339.87 83.1429C1339.87 94.0655 1337.19 103.672 1331.83 111.961C1326.46 120.153 1318.95 126.541 1309.3 131.125C1299.74 135.708 1288.57 138 1275.8 138H1223.72V28.2857H1275.8ZM1248.44 128.199L1235.86 116.057H1277.7C1285.11 116.057 1291.6 114.692 1297.16 111.961C1302.81 109.23 1307.15 105.378 1310.18 100.405C1313.2 95.4309 1314.71 89.677 1314.71 83.1429C1314.71 76.5112 1313.2 70.7573 1310.18 65.8811C1307.15 60.9074 1302.81 57.0552 1297.16 54.3246C1291.6 51.5939 1285.11 50.2286 1277.7 50.2286H1235.86L1248.44 38.0869V128.199ZM1374.56 28.2857H1399.43V138H1374.56V28.2857ZM1541.07 121.616L1532.44 122.933V28.2857H1556.58V138H1525.12L1454.91 43.3531L1463.39 42.0366V138H1439.4V28.2857H1471.58L1541.07 121.616ZM1707.56 90.4571C1707.46 97.0888 1706.14 103.428 1703.61 109.474C1701.17 115.423 1697.66 120.738 1693.08 125.419C1688.49 130.003 1682.84 133.611 1676.11 136.245C1669.38 138.878 1661.58 140.194 1652.7 140.194C1644.12 140.194 1636.07 138.926 1628.56 136.391C1621.15 133.758 1614.62 130.003 1608.96 125.127C1603.4 120.251 1599.06 114.302 1595.94 107.28C1592.82 100.161 1591.26 92.115 1591.26 83.1429C1591.26 74.1707 1592.82 66.1737 1595.94 59.152C1599.16 52.0328 1603.6 46.035 1609.25 41.1589C1614.91 36.2827 1621.54 32.5768 1629.15 30.0411C1636.76 27.408 1645.04 26.0914 1654.02 26.0914C1665.72 26.0914 1675.86 27.9444 1684.44 31.6503C1693.03 35.2587 1699.95 40.2811 1705.22 46.7177C1710.58 53.1543 1713.9 60.5173 1715.16 68.8069H1690.15C1689.17 64.3208 1687.03 60.4686 1683.71 57.2503C1680.49 54.032 1676.35 51.5451 1671.28 49.7897C1666.31 48.0343 1660.55 47.1566 1654.02 47.1566C1646.31 47.1566 1639.63 48.5707 1633.98 51.3989C1628.42 54.1295 1624.08 58.1768 1620.96 63.5406C1617.93 68.9044 1616.42 75.4385 1616.42 83.1429C1616.42 90.8472 1618.03 97.4301 1621.25 102.891C1624.47 108.353 1629.05 112.546 1635 115.472C1640.95 118.3 1647.97 119.714 1656.07 119.714C1663.96 119.714 1670.89 118.495 1676.84 116.057C1682.79 113.522 1687.47 110.011 1690.88 105.525C1694.39 100.941 1696.39 95.5284 1696.88 89.2869L1707.56 90.4571ZM1659.43 100.551V82.5577H1716.33V138H1698.49L1695.12 93.5291L1700.24 100.551H1659.43Z" fill="#1E1E1E"/>
<path opacity="0.67" d="M596.191 281.203L606.5 203.426C606.844 200.639 606.424 198.749 605.24 197.756C604.095 196.763 601.46 196.095 597.337 195.751L598.654 192.773H632.903L631.643 195.751C628.894 195.904 626.718 196.267 625.114 196.839C623.51 197.374 622.327 198.252 621.563 199.474C620.799 200.696 620.246 202.395 619.902 204.571L611.941 262.188L645.217 218.145L647.164 203.426C647.508 200.791 647.24 198.939 646.362 197.87C645.484 196.801 643.594 196.095 640.692 195.751L642.067 192.773H675.113L673.739 195.751C670.646 195.904 668.183 196.267 666.351 196.839C664.556 197.374 663.22 198.252 662.341 199.474C661.463 200.696 660.871 202.395 660.566 204.571L652.548 262.303L692.238 208.58C695.331 204.419 696.419 201.44 695.503 199.646C694.586 197.851 691.646 196.553 686.683 195.751L688 192.773H720.13L718.755 195.751C716.197 196.171 714.021 196.668 712.226 197.24C710.432 197.813 708.828 198.577 707.415 199.531C706.003 200.448 704.609 201.67 703.234 203.197C701.86 204.686 700.333 206.557 698.653 208.81L644.873 281.203H636.798L644.186 225.476L645.675 226.049L603.808 281.203H596.191ZM734.006 281.203C731.333 281.203 729.405 280.63 728.222 279.485C727.076 278.301 726.503 276.545 726.503 274.215C726.503 272.574 726.847 270.703 727.534 268.603C728.222 266.464 729.233 264.059 730.57 261.386L745.346 231.432C746.377 229.256 746.893 227.442 746.893 225.991C746.893 224.121 745.957 223.185 744.086 223.185C742.75 223.185 741.146 223.796 739.275 225.018C737.404 226.24 735.4 227.958 733.262 230.172C731.162 232.349 729.004 234.888 726.79 237.79C724.575 240.653 722.437 243.765 720.375 247.125C718.313 250.485 716.462 253.941 714.82 257.492L704.339 280H691.796L728.909 190.482L719.974 188.993L719.688 187.103H743.571L721.807 237.389L722.437 237.561C727.248 230.879 731.62 226.106 735.553 223.242C739.524 220.341 743.647 218.89 747.924 218.89C751.169 218.89 753.746 219.73 755.655 221.41C757.565 223.051 758.519 225.419 758.519 228.511C758.519 230.039 758.309 231.7 757.889 233.494C757.469 235.289 756.763 237.179 755.77 239.164L741.853 267.343C741.242 268.641 740.764 269.748 740.421 270.664C740.077 271.581 739.905 272.344 739.905 272.955C739.905 274.025 740.44 274.559 741.509 274.559C742.731 274.559 744.468 273.662 746.721 271.867C748.974 270.034 751.665 267.438 754.796 264.078L757.374 265.854C753.288 270.932 749.317 274.769 745.461 277.365C741.643 279.924 737.824 281.203 734.006 281.203ZM776.877 281.203C772.791 281.203 769.584 279.847 767.255 277.136C764.926 274.387 763.761 270.607 763.761 265.796C763.761 261.711 764.582 257.473 766.224 253.082C767.904 248.691 770.157 244.472 772.982 240.424C775.846 236.339 779.072 232.673 782.661 229.428C786.289 226.182 790.05 223.605 793.944 221.696C797.839 219.749 801.619 218.775 805.284 218.775C807.652 218.775 809.637 219.195 811.241 220.035C812.844 220.837 814.334 222.192 815.708 224.101L817.541 219.921H830.771L810.611 269.175C809.847 271.123 809.561 272.516 809.752 273.356C809.943 274.158 810.496 274.559 811.413 274.559C812.176 274.559 813.093 274.235 814.162 273.585C815.269 272.898 816.644 271.791 818.285 270.264C819.927 268.736 821.932 266.694 824.299 264.135L826.876 265.854C822.638 271.046 818.705 274.903 815.078 277.423C811.451 279.943 807.957 281.203 804.597 281.203C799.633 281.203 797.152 278.931 797.152 274.387C797.152 272.745 797.438 271.008 798.011 269.175C798.583 267.343 799.614 265.128 801.103 262.532L800.416 262.188C795.949 268.908 791.863 273.757 788.16 276.735C784.456 279.714 780.695 281.203 776.877 281.203ZM779.855 276.678C781.611 276.678 783.731 275.628 786.212 273.528C788.732 271.428 791.405 268.564 794.231 264.937C797.094 261.272 799.901 257.11 802.65 252.452C805.399 247.793 807.862 242.906 810.038 237.79C811.107 235.308 811.775 233.418 812.043 232.12C812.348 230.783 812.501 229.6 812.501 228.569C812.501 226.774 812.023 225.4 811.069 224.445C810.114 223.491 808.854 223.013 807.289 223.013C805.113 223.013 802.65 224.101 799.901 226.278C797.152 228.454 794.383 231.337 791.596 234.926C788.809 238.477 786.232 242.372 783.864 246.61C781.535 250.848 779.645 255.048 778.194 259.21C776.781 263.372 776.075 267.094 776.075 270.378C776.075 272.516 776.361 274.101 776.934 275.132C777.545 276.163 778.519 276.678 779.855 276.678ZM842.083 281.203C836.852 281.203 834.237 278.855 834.237 274.158C834.237 272.975 834.39 271.657 834.695 270.206C835.039 268.717 835.669 266.732 836.585 264.25C837.54 261.73 838.933 258.332 840.766 254.055L853.71 223.987H844.374L845.806 219.921H855.542L862.644 203.254L876.963 201.937L869.173 219.921H879.368L877.879 223.987H867.398L854.683 253.483C852.927 257.453 851.552 260.623 850.56 262.99C849.567 265.357 848.822 267.152 848.326 268.374C847.868 269.595 847.562 270.474 847.41 271.008C847.257 271.543 847.181 271.982 847.181 272.325C847.181 273.815 847.906 274.559 849.357 274.559C850.541 274.559 852.125 273.795 854.111 272.268C856.096 270.703 858.692 268.221 861.9 264.823L864.477 266.369C860.506 271.256 856.592 274.96 852.736 277.48C848.918 279.962 845.367 281.203 842.083 281.203ZM922.717 281.203C918.898 281.203 915.5 280.687 912.522 279.656C909.582 278.625 907.272 277.251 905.592 275.533C903.874 273.776 903.015 271.829 903.015 269.691C903.015 268.202 903.549 266.942 904.618 265.911C905.687 264.88 907.062 264.364 908.742 264.364C910.689 264.364 912.064 264.937 912.866 266.083C913.667 267.19 914.278 268.584 914.698 270.264C915.157 272.173 915.92 273.795 916.989 275.132C918.097 276.43 920.044 277.079 922.831 277.079C926.115 277.079 928.635 276.163 930.391 274.33C932.148 272.459 933.026 270.034 933.026 267.056C933.026 265.873 932.816 264.67 932.396 263.448C931.976 262.226 931.25 260.814 930.219 259.21C929.227 257.568 927.795 255.563 925.924 253.196C922.984 249.378 920.903 246.171 919.681 243.574C918.459 240.94 917.848 238.401 917.848 235.957C917.848 232.75 918.822 229.848 920.769 227.251C922.755 224.655 925.389 222.593 928.673 221.066C931.957 219.539 935.584 218.775 939.555 218.775C942.839 218.775 945.893 219.291 948.719 220.321C951.582 221.314 953.873 222.651 955.591 224.331C957.348 226.011 958.226 227.824 958.226 229.771C958.226 231.299 957.672 232.559 956.565 233.552C955.496 234.506 954.14 234.983 952.499 234.983C949.329 234.983 947.478 233.132 946.943 229.428C946.561 226.755 945.893 224.98 944.939 224.101C944.022 223.223 942.476 222.784 940.299 222.784C937.283 222.784 934.935 223.624 933.255 225.304C931.613 226.984 930.792 229.237 930.792 232.062C930.792 233.972 931.308 236.014 932.338 238.191C933.369 240.329 935.126 243.097 937.608 246.495C940.662 250.581 942.762 253.883 943.908 256.403C945.053 258.885 945.626 261.291 945.626 263.62C945.626 267.018 944.614 270.054 942.59 272.726C940.605 275.361 937.875 277.442 934.4 278.969C930.926 280.458 927.031 281.203 922.717 281.203ZM992.294 281.203C989.622 281.203 987.693 280.63 986.51 279.485C985.364 278.301 984.792 276.545 984.792 274.215C984.792 272.574 985.135 270.703 985.823 268.603C986.51 266.464 987.522 264.059 988.858 261.386L1003.63 231.432C1004.67 229.256 1005.18 227.442 1005.18 225.991C1005.18 224.121 1004.25 223.185 1002.37 223.185C1001.04 223.185 999.434 223.796 997.564 225.018C995.693 226.24 993.688 227.958 991.55 230.172C989.45 232.349 987.293 234.888 985.078 237.79C982.863 240.653 980.725 243.765 978.663 247.125C976.602 250.485 974.75 253.941 973.108 257.492L962.627 280H950.084L987.197 190.482L978.263 188.993L977.976 187.103H1001.86L980.095 237.389L980.725 237.561C985.536 230.879 989.908 226.106 993.841 223.242C997.812 220.341 1001.94 218.89 1006.21 218.89C1009.46 218.89 1012.03 219.73 1013.94 221.41C1015.85 223.051 1016.81 225.419 1016.81 228.511C1016.81 230.039 1016.6 231.7 1016.18 233.494C1015.76 235.289 1015.05 237.179 1014.06 239.164L1000.14 267.343C999.53 268.641 999.053 269.748 998.709 270.664C998.365 271.581 998.194 272.344 998.194 272.955C998.194 274.025 998.728 274.559 999.797 274.559C1001.02 274.559 1002.76 273.662 1005.01 271.867C1007.26 270.034 1009.95 267.438 1013.08 264.078L1015.66 265.854C1011.58 270.932 1007.61 274.769 1003.75 277.365C999.931 279.924 996.113 281.203 992.294 281.203ZM1042.58 281.203C1036.81 281.203 1032.35 279.504 1029.18 276.105C1026.05 272.669 1024.48 267.954 1024.48 261.959C1024.48 257.835 1025.24 253.712 1026.77 249.588C1028.3 245.464 1030.4 241.57 1033.07 237.904C1035.74 234.201 1038.8 230.917 1042.23 228.053C1045.67 225.19 1049.34 222.937 1053.23 221.295C1057.16 219.615 1061.08 218.775 1064.97 218.775C1070.74 218.775 1075.2 220.474 1078.37 223.872C1081.54 227.271 1083.13 231.948 1083.13 237.904C1083.13 242.066 1082.35 246.228 1080.78 250.39C1079.25 254.513 1077.15 258.427 1074.48 262.131C1071.81 265.796 1068.75 269.08 1065.32 271.982C1061.88 274.845 1058.21 277.098 1054.32 278.74C1050.42 280.382 1046.51 281.203 1042.58 281.203ZM1041.55 276.678C1043.65 276.678 1046.01 275.647 1048.65 273.585C1051.28 271.524 1053.92 268.813 1056.55 265.453C1059.19 262.054 1061.61 258.313 1063.83 254.227C1066.04 250.142 1067.82 246.075 1069.15 242.028C1070.49 237.981 1071.16 234.277 1071.16 230.917C1071.16 228.435 1070.74 226.526 1069.9 225.19C1069.1 223.853 1067.8 223.185 1066 223.185C1063.83 223.185 1061.42 224.197 1058.79 226.221C1056.15 228.206 1053.52 230.879 1050.88 234.239C1048.29 237.561 1045.92 241.226 1043.78 245.235C1041.64 249.206 1039.91 253.253 1038.57 257.377C1037.27 261.463 1036.62 265.224 1036.62 268.66C1036.62 271.256 1037 273.242 1037.77 274.616C1038.57 275.991 1039.83 276.678 1041.55 276.678ZM1128.1 281.203C1125.93 281.203 1124.17 280.592 1122.83 279.37C1121.5 278.148 1120.83 276.506 1120.83 274.445C1120.83 272.994 1121.12 271.333 1121.69 269.462C1122.3 267.553 1123.27 265.281 1124.61 262.646L1123.92 262.36C1120.68 266.98 1117.7 270.664 1114.99 273.414C1112.31 276.125 1109.7 278.091 1107.14 279.313C1104.62 280.496 1101.93 281.088 1099.07 281.088C1095.63 281.088 1093.03 280.21 1091.28 278.454C1089.52 276.659 1088.64 274.082 1088.64 270.722C1088.64 267.591 1089.54 264.269 1091.33 260.756L1105.71 231.662C1106.32 230.478 1106.76 229.447 1107.03 228.569C1107.29 227.691 1107.43 226.965 1107.43 226.392C1107.43 225.591 1107.03 225.19 1106.22 225.19C1105.5 225.19 1104.53 225.533 1103.3 226.221C1102.08 226.87 1100.76 227.767 1099.35 228.912C1097.98 230.058 1096.62 231.375 1095.29 232.864L1092.54 230.86C1095.9 226.927 1099.33 223.93 1102.85 221.868C1106.36 219.806 1109.83 218.775 1113.27 218.775C1115.6 218.775 1117.41 219.329 1118.71 220.436C1120.01 221.505 1120.66 223.128 1120.66 225.304C1120.66 226.946 1120.31 228.893 1119.63 231.146C1118.98 233.399 1117.98 235.862 1116.65 238.534L1102.16 268.545C1101.7 269.576 1101.34 270.569 1101.07 271.524C1100.8 272.44 1100.67 273.242 1100.67 273.929C1100.67 274.807 1100.94 275.495 1101.47 275.991C1102.04 276.487 1102.73 276.735 1103.53 276.735C1104.87 276.735 1106.45 276.105 1108.29 274.845C1110.16 273.547 1112.14 271.753 1114.24 269.462C1116.34 267.133 1118.46 264.441 1120.6 261.386C1122.78 258.332 1124.88 255.029 1126.9 251.478C1128.96 247.927 1130.83 244.281 1132.51 240.539L1141.79 219.921H1155.02L1133.37 270.092C1132.57 271.886 1132.17 273.261 1132.17 274.215C1132.17 274.674 1132.32 275.017 1132.63 275.246C1132.93 275.475 1133.3 275.59 1133.72 275.59C1134.98 275.59 1136.68 274.712 1138.81 272.955C1140.99 271.199 1143.47 268.717 1146.26 265.51L1148.89 267.343C1145.27 271.734 1141.68 275.151 1138.13 277.595C1134.58 280 1131.23 281.203 1128.1 281.203ZM1161.6 281.203C1159.42 281.203 1157.74 280.592 1156.56 279.37C1155.41 278.11 1154.84 276.411 1154.84 274.273C1154.84 273.471 1154.96 272.535 1155.18 271.466C1155.45 270.397 1155.91 268.927 1156.56 267.056C1157.21 265.185 1158.16 262.684 1159.42 259.554C1160.68 256.384 1162.31 252.356 1164.29 247.469C1166.31 242.582 1168.82 236.568 1171.79 229.428L1188.12 190.482L1179.18 188.993L1178.84 187.103H1203.64L1178.67 245.235C1175.84 251.764 1173.65 256.9 1172.08 260.642C1170.51 264.345 1169.41 267.094 1168.76 268.889C1168.15 270.684 1167.84 271.963 1167.84 272.726C1167.84 273.299 1168.05 273.757 1168.47 274.101C1168.89 274.406 1169.35 274.559 1169.85 274.559C1170.53 274.559 1171.37 274.292 1172.37 273.757C1173.4 273.223 1174.71 272.268 1176.32 270.894C1177.92 269.519 1179.93 267.553 1182.33 264.994L1185.08 266.598C1181.07 271.371 1177.02 274.998 1172.94 277.48C1168.85 279.962 1165.07 281.203 1161.6 281.203ZM1205.87 281.203C1201.67 281.203 1198.44 279.905 1196.19 277.308C1193.97 274.674 1192.86 270.894 1192.86 265.968C1192.86 261.806 1193.67 257.53 1195.27 253.139C1196.87 248.71 1199.05 244.452 1201.8 240.367C1204.55 236.282 1207.66 232.616 1211.13 229.371C1214.65 226.125 1218.31 223.548 1222.13 221.639C1225.99 219.73 1229.77 218.775 1233.47 218.775C1235.88 218.775 1237.88 219.195 1239.49 220.035C1241.13 220.837 1242.67 222.192 1244.12 224.101L1257.47 190.482L1248.48 188.993L1248.02 187.103H1271.73L1239.77 269.175C1239.08 271.046 1238.82 272.421 1238.97 273.299C1239.12 274.139 1239.7 274.559 1240.69 274.559C1241.45 274.559 1242.35 274.235 1243.38 273.585C1244.41 272.898 1245.71 271.791 1247.27 270.264C1248.84 268.736 1250.81 266.694 1253.17 264.135L1255.69 265.854C1251.65 271.046 1247.85 274.903 1244.3 277.423C1240.75 279.943 1237.27 281.203 1233.87 281.203C1231.28 281.203 1229.37 280.535 1228.15 279.198C1226.92 277.862 1226.31 275.915 1226.31 273.356C1226.31 271.944 1226.62 270.397 1227.23 268.717C1227.84 266.999 1228.76 264.937 1229.98 262.532L1229.52 262.188C1224.98 269.023 1220.89 273.91 1217.26 276.85C1213.67 279.752 1209.87 281.203 1205.87 281.203ZM1208.84 276.678C1210.56 276.678 1212.66 275.628 1215.14 273.528C1217.66 271.39 1220.32 268.488 1223.1 264.823C1225.93 261.157 1228.68 256.995 1231.35 252.337C1234.06 247.679 1236.47 242.83 1238.57 237.79C1239.6 235.308 1240.29 233.418 1240.63 232.12C1241.01 230.822 1241.22 229.638 1241.26 228.569C1240.92 224.865 1239.16 223.013 1235.99 223.013C1233.78 223.013 1231.3 224.121 1228.55 226.335C1225.83 228.511 1223.1 231.394 1220.36 234.983C1217.61 238.534 1215.07 242.448 1212.74 246.724C1210.45 250.963 1208.6 255.182 1207.18 259.382C1205.77 263.544 1205.06 267.266 1205.06 270.55C1205.06 272.612 1205.41 274.158 1206.09 275.189C1206.78 276.182 1207.7 276.678 1208.84 276.678ZM1286.02 218.374L1284.71 214.193C1287.57 212.971 1290.22 211.597 1292.67 210.07C1295.15 208.542 1297.15 207.053 1298.68 205.602C1300.21 204.113 1300.97 202.872 1300.97 201.88C1300.97 200.772 1300.05 199.989 1298.22 199.531C1296.24 198.959 1294.73 198.023 1293.7 196.725C1292.67 195.389 1292.15 193.899 1292.15 192.258C1292.15 189.89 1292.93 187.981 1294.5 186.53C1296.06 185.041 1298.11 184.297 1300.63 184.297C1303.38 184.297 1305.57 185.175 1307.21 186.931C1308.89 188.688 1309.73 191.036 1309.73 193.976C1309.73 198.481 1307.6 202.91 1303.32 207.263C1299.04 211.578 1293.28 215.281 1286.02 218.374ZM1318.95 281.203C1314.37 281.203 1310.69 280.038 1307.9 277.709C1305.11 275.342 1303.72 272.115 1303.72 268.03C1303.72 264.67 1304.88 261.157 1307.21 257.492C1309.54 253.826 1313.48 249.244 1319.01 243.746C1320.69 242.066 1322.16 240.501 1323.42 239.05C1324.68 237.599 1325.83 236.167 1326.86 234.754C1327.89 233.342 1328.9 231.833 1329.89 230.23H1312.37C1308.93 230.23 1306.39 230.783 1304.75 231.891C1303.11 232.96 1302.29 234.602 1302.29 236.816C1302.29 238.84 1302.99 240.329 1304.41 241.283L1304.81 240.825C1304.46 240.443 1304.2 240.023 1304.01 239.565C1303.81 239.107 1303.72 238.592 1303.72 238.019C1303.72 236.721 1304.18 235.69 1305.09 234.926C1306.05 234.124 1307.16 233.723 1308.42 233.723C1309.87 233.723 1311.03 234.162 1311.91 235.041C1312.79 235.881 1313.23 236.988 1313.23 238.362C1313.23 239.928 1312.69 241.169 1311.62 242.085C1310.55 243.002 1309.14 243.46 1307.39 243.46C1304.94 243.46 1302.82 242.582 1301.03 240.825C1299.27 239.031 1298.39 236.53 1298.39 233.322C1298.39 229.084 1300.15 225.801 1303.66 223.471C1307.18 221.104 1312.58 219.921 1319.87 219.921H1339.92C1338.92 222.059 1338.03 223.911 1337.22 225.476C1336.46 227.041 1335.66 228.55 1334.82 230.001C1333.98 231.452 1333.01 233.055 1331.9 234.812C1330.79 236.53 1329.44 238.63 1327.83 241.112C1325.01 245.388 1322.83 249.053 1321.3 252.108C1319.78 255.124 1318.73 257.778 1318.15 260.069C1317.58 262.322 1317.29 264.46 1317.29 266.484C1317.29 269.614 1317.87 272.02 1319.01 273.7C1320.2 275.38 1321.97 276.22 1324.34 276.22C1326.63 276.22 1329 275.533 1331.44 274.158C1333.92 272.745 1336.35 270.836 1338.71 268.431C1341.08 266.025 1343.26 263.372 1345.24 260.47C1347.72 256.766 1349.73 252.891 1351.26 248.843C1352.82 244.796 1353.6 241.073 1353.6 237.675C1353.6 235.613 1353.38 233.609 1352.92 231.662C1352.5 229.714 1352.29 227.901 1352.29 226.221C1352.29 223.93 1352.86 222.116 1354.01 220.78C1355.15 219.443 1356.7 218.775 1358.64 218.775C1360.4 218.775 1361.79 219.443 1362.83 220.78C1363.89 222.116 1364.43 224.483 1364.43 227.881C1364.43 231.242 1363.84 234.945 1362.65 238.992C1361.51 243.04 1359.85 247.125 1357.67 251.249C1355.53 255.373 1352.97 259.286 1350 262.99C1347.29 266.426 1344.27 269.519 1340.95 272.268C1337.63 275.017 1334.11 277.194 1330.41 278.797C1326.71 280.401 1322.89 281.203 1318.95 281.203ZM1381.32 281.203C1376.43 281.203 1372.58 279.752 1369.75 276.85C1366.96 273.948 1365.57 269.977 1365.57 264.937C1365.57 260.623 1366.43 256.289 1368.15 251.936C1369.9 247.545 1372.29 243.383 1375.31 239.451C1378.32 235.48 1381.76 231.948 1385.62 228.855C1389.47 225.724 1393.54 223.261 1397.82 221.467C1402.09 219.672 1406.33 218.775 1410.53 218.775C1414.39 218.775 1417.4 219.539 1419.58 221.066C1421.76 222.555 1422.84 224.655 1422.84 227.366C1422.84 230.535 1421.26 233.571 1418.09 236.472C1414.96 239.374 1410.49 241.99 1404.69 244.319C1398.88 246.61 1391.99 248.462 1384.01 249.874C1382.07 253.616 1380.6 257.11 1379.6 260.355C1378.61 263.563 1378.11 266.426 1378.11 268.946C1378.11 274.101 1380.29 276.678 1384.64 276.678C1386.9 276.678 1389.32 276.086 1391.92 274.903C1394.51 273.719 1397.15 272.039 1399.82 269.863C1402.49 267.648 1405.07 264.994 1407.55 261.902L1410.19 263.677C1405.45 269.519 1400.68 273.91 1395.87 276.85C1391.06 279.752 1386.21 281.203 1381.32 281.203ZM1386.48 245.923C1390.94 245.006 1395.14 243.479 1399.08 241.341C1403.01 239.202 1406.2 236.778 1408.64 234.067C1411.08 231.356 1412.31 228.741 1412.31 226.221C1412.31 224.006 1411.16 222.899 1408.87 222.899C1406.92 222.899 1404.78 223.681 1402.45 225.247C1400.16 226.774 1397.87 228.874 1395.58 231.547C1393.33 234.22 1391.25 237.255 1389.34 240.653L1386.48 245.923ZM1479.62 281.203C1474.78 281.203 1470.88 280.057 1467.94 277.766C1465.04 275.475 1463.59 272.306 1463.59 268.259C1463.59 266.044 1464.03 263.754 1464.91 261.386C1465.82 259.019 1467.33 256.403 1469.43 253.54C1471.53 250.676 1474.37 247.412 1477.96 243.746C1479.64 241.99 1481.11 240.386 1482.37 238.935C1483.67 237.484 1484.84 236.072 1485.87 234.697C1486.9 233.284 1487.91 231.795 1488.9 230.23H1471.32C1467.85 230.23 1465.29 230.783 1463.65 231.891C1462.04 232.96 1461.24 234.602 1461.24 236.816C1461.24 237.809 1461.45 238.687 1461.87 239.451C1462.29 240.214 1462.79 240.825 1463.36 241.283L1463.7 240.825C1463.44 240.443 1463.17 240.023 1462.9 239.565C1462.63 239.107 1462.5 238.592 1462.5 238.019C1462.5 236.873 1462.96 235.881 1463.87 235.041C1464.83 234.162 1465.97 233.723 1467.31 233.723C1468.57 233.723 1469.68 234.182 1470.63 235.098C1471.63 235.976 1472.12 237.141 1472.12 238.592C1472.12 240.081 1471.59 241.264 1470.52 242.142C1469.49 243.021 1468.09 243.46 1466.34 243.46C1463.89 243.46 1461.79 242.601 1460.04 240.882C1458.32 239.126 1457.46 236.721 1457.46 233.666C1457.46 229.275 1459.16 225.896 1462.56 223.529C1465.96 221.123 1471.38 219.921 1478.82 219.921H1498.98C1497.91 222.135 1496.94 224.063 1496.06 225.705C1495.22 227.309 1494.38 228.855 1493.54 230.344C1492.74 231.795 1491.8 233.38 1490.74 235.098C1489.67 236.778 1488.39 238.782 1486.9 241.112C1482.93 247.183 1480.29 252.146 1478.99 256.003C1477.7 259.821 1477.05 263.162 1477.05 266.025C1477.05 269.118 1477.68 271.485 1478.94 273.127C1480.2 274.769 1482.13 275.59 1484.72 275.59C1486.71 275.59 1488.85 275.094 1491.14 274.101C1493.43 273.108 1495.76 271.714 1498.12 269.92C1497.67 268.545 1497.28 267.056 1496.98 265.453C1496.71 263.811 1496.58 262.054 1496.58 260.184C1496.58 256.403 1497.17 252.566 1498.35 248.672C1499.58 244.777 1501.24 241.054 1503.34 237.503C1505.44 233.914 1507.82 230.726 1510.5 227.939C1513.17 225.113 1515.96 222.88 1518.86 221.238C1521.8 219.596 1524.68 218.775 1527.51 218.775C1529.87 218.775 1531.72 219.405 1533.06 220.665C1534.4 221.887 1535.07 223.681 1535.07 226.049C1535.07 228.874 1534.03 232.406 1531.97 236.644C1529.95 240.882 1527.09 245.503 1523.38 250.504C1519.68 255.468 1515.34 260.546 1510.38 265.739C1511.26 268.946 1512.6 271.371 1514.39 273.013C1516.22 274.655 1518.42 275.475 1520.98 275.475C1523 275.475 1525.08 274.845 1527.22 273.585C1529.4 272.287 1531.5 270.55 1533.52 268.374C1535.58 266.197 1537.49 263.754 1539.25 261.043C1541.61 257.339 1543.56 253.387 1545.09 249.187C1546.62 244.987 1547.38 241.169 1547.38 237.732C1547.38 235.632 1547.15 233.609 1546.69 231.662C1546.27 229.714 1546.06 227.901 1546.06 226.221C1546.06 223.968 1546.62 222.173 1547.72 220.837C1548.87 219.462 1550.41 218.775 1552.36 218.775C1554.08 218.775 1555.47 219.443 1556.54 220.78C1557.61 222.116 1558.15 224.483 1558.15 227.881C1558.15 231.394 1557.55 235.232 1556.37 239.393C1555.19 243.517 1553.53 247.679 1551.39 251.879C1549.29 256.041 1546.83 259.974 1544 263.677C1541.44 266.999 1538.62 269.996 1535.52 272.669C1532.47 275.304 1529.26 277.385 1525.9 278.912C1522.54 280.439 1519.11 281.203 1515.59 281.203C1512.19 281.203 1509.24 280.592 1506.72 279.37C1504.23 278.11 1502.17 276.411 1500.53 274.273C1497.09 276.449 1493.62 278.148 1490.11 279.37C1486.63 280.592 1483.14 281.203 1479.62 281.203ZM1509.58 260.126C1512.94 256.575 1515.97 252.833 1518.69 248.901C1521.4 244.93 1523.53 240.997 1525.1 237.102C1526.7 233.208 1527.51 229.6 1527.51 226.278C1527.51 223.796 1526.89 222.555 1525.67 222.555C1523.84 222.555 1521.97 223.491 1520.06 225.361C1518.19 227.232 1516.47 229.714 1514.91 232.807C1513.34 235.9 1512.06 239.336 1511.07 243.116C1510.08 246.896 1509.52 250.695 1509.41 254.513C1509.37 256.575 1509.43 258.446 1509.58 260.126ZM1578.84 281.203C1573.08 281.203 1568.61 279.504 1565.44 276.105C1562.31 272.669 1560.74 267.954 1560.74 261.959C1560.74 257.835 1561.51 253.712 1563.04 249.588C1564.56 245.464 1566.66 241.57 1569.34 237.904C1572.01 234.201 1575.06 230.917 1578.5 228.053C1581.94 225.19 1585.6 222.937 1589.5 221.295C1593.43 219.615 1597.34 218.775 1601.24 218.775C1607 218.775 1611.47 220.474 1614.64 223.872C1617.81 227.271 1619.39 231.948 1619.39 237.904C1619.39 242.066 1618.61 246.228 1617.04 250.39C1615.52 254.513 1613.42 258.427 1610.74 262.131C1608.07 265.796 1605.02 269.08 1601.58 271.982C1598.14 274.845 1594.48 277.098 1590.58 278.74C1586.69 280.382 1582.78 281.203 1578.84 281.203ZM1577.81 276.678C1579.91 276.678 1582.28 275.647 1584.91 273.585C1587.55 271.524 1590.18 268.813 1592.82 265.453C1595.45 262.054 1597.88 258.313 1600.09 254.227C1602.31 250.142 1604.08 246.075 1605.42 242.028C1606.75 237.981 1607.42 234.277 1607.42 230.917C1607.42 228.435 1607 226.526 1606.16 225.19C1605.36 223.853 1604.06 223.185 1602.27 223.185C1600.09 223.185 1597.69 224.197 1595.05 226.221C1592.42 228.206 1589.78 230.879 1587.15 234.239C1584.55 237.561 1582.18 241.226 1580.05 245.235C1577.91 249.206 1576.17 253.253 1574.83 257.377C1573.54 261.463 1572.89 265.224 1572.89 268.66C1572.89 271.256 1573.27 273.242 1574.03 274.616C1574.83 275.991 1576.09 276.678 1577.81 276.678ZM1664.56 281.203C1659.49 281.203 1656.95 278.988 1656.95 274.559C1656.95 271.237 1658.32 266.846 1661.07 261.386L1676.02 231.432C1676.48 230.516 1676.82 229.6 1677.05 228.683C1677.32 227.767 1677.45 226.927 1677.45 226.163C1677.45 224.178 1676.46 223.185 1674.47 223.185C1673.02 223.185 1671.34 223.796 1669.43 225.018C1667.56 226.24 1665.56 227.939 1663.42 230.115C1661.28 232.292 1659.1 234.831 1656.89 237.732C1654.71 240.596 1652.59 243.708 1650.53 247.068C1648.51 250.428 1646.66 253.903 1644.98 257.492L1634.32 280H1621.44L1643.09 228.855C1643.81 227.137 1644.17 226.03 1644.17 225.533C1644.17 224.579 1643.72 224.101 1642.8 224.101C1642 224.101 1640.91 224.56 1639.54 225.476C1638.16 226.354 1636.69 227.538 1635.13 229.027C1633.6 230.516 1632.17 232.139 1630.83 233.895L1628.25 231.891C1631.23 227.92 1634.69 224.751 1638.62 222.383C1642.55 219.978 1646.47 218.775 1650.36 218.775C1654.52 218.775 1656.6 220.493 1656.6 223.93C1656.6 225.419 1656.24 227.175 1655.52 229.199C1654.83 231.222 1653.61 233.952 1651.85 237.389L1652.42 237.561C1657.31 230.879 1661.74 226.106 1665.71 223.242C1669.72 220.341 1673.88 218.89 1678.2 218.89C1685.34 218.89 1688.91 222.288 1688.91 229.084C1688.91 232.368 1688.05 235.728 1686.33 239.164L1672.41 267.343C1671.84 268.526 1671.36 269.634 1670.98 270.664C1670.64 271.695 1670.46 272.497 1670.46 273.07C1670.46 274.063 1670.94 274.559 1671.9 274.559C1673.16 274.559 1674.85 273.7 1676.99 271.982C1679.13 270.225 1681.77 267.591 1684.9 264.078L1687.53 265.854C1683.37 271.046 1679.4 274.903 1675.62 277.423C1671.88 279.943 1668.19 281.203 1664.56 281.203ZM1703.37 253.54L1712.07 216.942C1713.29 211.788 1714.32 207.588 1715.16 204.342C1716 201.059 1716.61 198.863 1717 197.756C1717.65 195.885 1718.7 194.396 1720.15 193.289C1721.6 192.143 1723.34 191.57 1725.36 191.57C1727.65 191.57 1729.5 192.296 1730.91 193.747C1732.33 195.198 1733.03 197.049 1733.03 199.302C1733.03 200.448 1732.8 201.727 1732.35 203.14C1731.89 204.552 1731.03 206.385 1729.77 208.638C1728.55 210.89 1726.77 213.888 1724.44 217.63C1722.23 221.219 1720.19 224.865 1718.31 228.569C1716.44 232.234 1714.67 236.11 1712.99 240.195C1711.35 244.242 1709.7 248.691 1708.06 253.54H1703.37ZM1698.78 281.203C1696.61 281.203 1694.81 280.515 1693.4 279.141C1691.99 277.766 1691.28 276.029 1691.28 273.929C1691.28 271.562 1692.18 269.538 1693.97 267.858C1695.77 266.14 1697.91 265.281 1700.39 265.281C1702.68 265.281 1704.59 265.987 1706.11 267.4C1707.68 268.774 1708.46 270.493 1708.46 272.554C1708.46 274.082 1708 275.495 1707.09 276.793C1706.21 278.091 1705.03 279.16 1703.54 280C1702.09 280.802 1700.5 281.203 1698.78 281.203Z" fill="#1E1E1E"/>
<path d="M406.362 13.0437C411.111 9.03898 418.055 9.0389 422.804 13.0437L538.098 110.28C540.97 112.703 542.628 116.269 542.628 120.027V270.455C542.628 277.497 536.919 283.207 529.877 283.207H299.289C292.247 283.207 286.537 277.497 286.537 270.455V120.027C286.537 116.269 288.196 112.703 291.068 110.28L406.362 13.0437Z" fill="white" stroke="black" stroke-width="8.50093"/>
<path d="M455.494 188.932L541.963 116.376" stroke="black" stroke-width="8.50093" stroke-linecap="round"/>
<path d="M378.32 188.932L291.851 116.376" stroke="black" stroke-width="8.50093" stroke-linecap="round"/>
<path d="M508.625 22.8655C512.146 22.8656 515 25.7203 515 29.2415V120.9C515 122.917 514.045 124.815 512.426 126.018L444.024 176.814C441.464 178.715 437.89 178.44 435.501 176.327C430.329 171.753 421.256 164.689 414.583 164.725C408.211 164.759 400.078 171.447 395.277 175.999C392.889 178.263 389.181 178.641 386.533 176.688L317.82 126.018C316.19 124.816 315.228 122.911 315.228 120.886V29.2415C315.228 25.7203 318.083 22.8655 321.604 22.8655H508.625ZM418.146 51.3235C417.192 48.3865 413.036 48.3865 412.082 51.3235L403.901 76.5022C403.474 77.8157 402.25 78.7053 400.869 78.7053H374.395C371.307 78.7053 370.023 82.6568 372.521 84.4719L393.939 100.033C395.056 100.845 395.524 102.284 395.097 103.597L386.917 128.777C385.963 131.713 389.324 134.155 391.822 132.34L413.24 116.779C414.357 115.967 415.871 115.967 416.988 116.779L438.406 132.34C440.904 134.155 444.266 131.713 443.312 128.777L435.131 103.597C434.704 102.284 435.172 100.845 436.289 100.033L457.707 84.4719C460.205 82.6568 458.922 78.7057 455.834 78.7053H429.359C427.978 78.7053 426.754 77.8157 426.327 76.5022L418.146 51.3235Z" fill="#CAAC4C"/>
<path d="M409.587 182.639C412.566 180.475 416.6 180.475 419.579 182.639L537.228 268.093C543.891 272.933 540.468 283.472 532.233 283.472H296.933C288.698 283.472 285.274 272.933 291.937 268.093L409.587 182.639Z" fill="white" stroke="black" stroke-width="8.50093"/>
</svg>
