<svg width="3416" height="472" viewBox="0 0 3416 472" fill="none" xmlns="http://www.w3.org/2000/svg">
<path d="M628.585 346.225C607.914 346.225 589.641 342.173 573.765 334.07C558.055 325.967 545.818 314.722 537.053 300.335C528.289 285.782 523.907 268.997 523.907 249.98C523.907 230.797 528.289 214.012 537.053 199.625C545.818 185.238 558.055 173.993 573.765 165.89C589.641 157.787 607.914 153.735 628.585 153.735C649.256 153.735 667.447 157.787 683.157 165.89C698.867 173.993 711.104 185.238 719.869 199.625C728.634 214.012 733.016 230.797 733.016 249.98C733.016 268.997 728.634 285.782 719.869 300.335C711.104 314.722 698.867 325.967 683.157 334.07C667.447 342.173 649.256 346.225 628.585 346.225ZM628.585 325.14C644.957 325.14 659.179 322.081 671.25 315.962C683.322 309.678 692.666 300.914 699.281 289.668C705.895 278.423 709.203 265.194 709.203 249.98C709.203 234.601 705.895 221.288 699.281 210.043C692.666 198.798 683.322 190.116 671.25 183.998C659.179 177.879 644.957 174.82 628.585 174.82C612.214 174.82 597.992 177.879 585.92 183.998C573.848 190.116 564.422 198.798 557.642 210.043C551.027 221.288 547.72 234.601 547.72 249.98C547.72 265.194 551.027 278.423 557.642 289.668C564.422 300.914 573.848 309.678 585.92 315.962C597.992 322.081 612.214 325.14 628.585 325.14ZM804.816 282.723H828.381C829.538 291.488 833.011 299.177 838.799 305.792C844.587 312.407 852.194 317.533 861.62 321.171C871.211 324.644 882.208 326.38 894.611 326.38C913.298 326.38 928.098 323.238 939.013 316.954C950.093 310.505 955.632 301.823 955.632 290.909C955.632 282.475 952.16 276.026 945.214 271.561C938.434 267.096 926.527 263.871 909.494 261.886L873.527 257.421C850.871 254.776 834.582 249.401 824.66 241.298C814.738 233.03 809.777 221.95 809.777 208.059C809.777 196.979 813.084 187.388 819.699 179.285C826.314 171.016 835.574 164.732 847.481 160.432C859.553 155.968 873.609 153.735 889.65 153.735C905.691 153.735 919.913 156.216 932.315 161.177C944.883 165.972 954.806 172.752 962.082 181.517C969.523 190.116 973.575 200.286 974.236 212.028H950.671C949.679 204.09 946.537 197.31 941.245 191.687C935.953 185.899 928.843 181.434 919.913 178.292C911.148 174.985 900.895 173.331 889.154 173.331C872.121 173.331 858.478 176.391 848.225 182.509C838.138 188.463 833.094 196.814 833.094 207.563C833.094 215.831 836.401 222.198 843.016 226.663C849.796 230.962 861.207 234.104 877.247 236.089L912.471 240.802C928.843 242.786 941.824 245.68 951.415 249.484C961.172 253.287 968.2 258.414 972.5 264.863C976.8 271.147 978.949 279.168 978.949 288.924C978.949 300.666 975.394 310.836 968.283 319.435C961.338 328.034 951.498 334.649 938.765 339.279C926.031 343.91 911.231 346.225 894.363 346.225C877.33 346.225 862.199 343.579 848.969 338.287C835.74 332.83 825.239 325.388 817.466 315.962C809.694 306.371 805.477 295.291 804.816 282.723ZM1252.83 271.312C1251.18 286.03 1245.97 299.094 1237.21 310.505C1228.44 321.75 1216.95 330.515 1202.73 336.799C1188.67 343.083 1172.55 346.225 1154.36 346.225C1133.85 346.225 1115.83 342.173 1100.28 334.07C1084.9 325.967 1072.91 314.722 1064.31 300.335C1055.71 285.782 1051.41 268.997 1051.41 249.98C1051.41 230.797 1055.71 214.012 1064.31 199.625C1072.91 185.238 1084.9 173.993 1100.28 165.89C1115.83 157.787 1133.85 153.735 1154.36 153.735C1172.55 153.735 1188.67 156.877 1202.73 163.161C1216.95 169.445 1228.44 178.21 1237.21 189.455C1245.97 200.534 1251.18 213.516 1252.83 228.399H1229.27C1227.28 217.485 1222.98 208.059 1216.37 200.121C1209.75 192.018 1201.16 185.817 1190.57 181.517C1179.99 177.052 1167.83 174.82 1154.11 174.82C1138.07 174.82 1124.09 177.879 1112.19 183.998C1100.45 190.116 1091.35 198.798 1084.9 210.043C1078.45 221.288 1075.23 234.601 1075.23 249.98C1075.23 265.194 1078.45 278.423 1084.9 289.668C1091.35 300.914 1100.45 309.678 1112.19 315.962C1124.09 322.081 1138.07 325.14 1154.11 325.14C1167.83 325.14 1179.99 322.99 1190.57 318.691C1201.16 314.226 1209.75 308.024 1216.37 300.087C1222.98 291.984 1227.28 282.392 1229.27 271.312H1252.83ZM1346.62 296.862V277.018H1477.59V296.862H1346.62ZM1426.74 156.96L1518.27 343H1492.97L1406.9 164.897H1419.3L1332.98 343H1307.68L1399.21 156.96H1426.74ZM1609.33 244.771H1689.21C1701.44 244.771 1711.2 241.711 1718.48 235.593C1725.92 229.474 1729.64 221.288 1729.64 211.035C1729.64 200.617 1725.92 192.431 1718.48 186.478C1711.2 180.359 1701.44 177.3 1689.21 177.3H1606.11L1616.53 164.897V343H1593.21V156.96H1689.95C1702.52 156.96 1713.52 159.275 1722.94 163.905C1732.37 168.37 1739.73 174.654 1745.02 182.757C1750.48 190.86 1753.2 200.286 1753.2 211.035C1753.2 221.619 1750.48 230.962 1745.02 239.066C1739.73 247.169 1732.37 253.535 1722.94 258.166C1713.52 262.631 1702.52 264.863 1689.95 264.863H1609.33V244.771ZM1650.51 255.933H1679.28L1756.93 343H1727.9L1650.51 255.933ZM2050.8 335.31H2040.14L2102.65 156.96H2126.96L2060.48 343H2031.46L1964.23 166.634H1976.64L1909.41 343H1880.14L1813.91 156.96H1838.22L1900.48 335.31H1890.31L1957.54 156.96H1983.33L2050.8 335.31ZM2291.51 346.225C2270.84 346.225 2252.57 342.173 2236.69 334.07C2220.98 325.967 2208.75 314.722 2199.98 300.335C2191.22 285.782 2186.84 268.997 2186.84 249.98C2186.84 230.797 2191.22 214.012 2199.98 199.625C2208.75 185.238 2220.98 173.993 2236.69 165.89C2252.57 157.787 2270.84 153.735 2291.51 153.735C2312.18 153.735 2330.38 157.787 2346.09 165.89C2361.8 173.993 2374.03 185.238 2382.8 199.625C2391.56 214.012 2395.94 230.797 2395.94 249.98C2395.94 268.997 2391.56 285.782 2382.8 300.335C2374.03 314.722 2361.8 325.967 2346.09 334.07C2330.38 342.173 2312.18 346.225 2291.51 346.225ZM2291.51 325.14C2307.89 325.14 2322.11 322.081 2334.18 315.962C2346.25 309.678 2355.59 300.914 2362.21 289.668C2368.82 278.423 2372.13 265.194 2372.13 249.98C2372.13 234.601 2368.82 221.288 2362.21 210.043C2355.59 198.798 2346.25 190.116 2334.18 183.998C2322.11 177.879 2307.89 174.82 2291.51 174.82C2275.14 174.82 2260.92 177.879 2248.85 183.998C2236.78 190.116 2227.35 198.798 2220.57 210.043C2213.96 221.288 2210.65 234.601 2210.65 249.98C2210.65 265.194 2213.96 278.423 2220.57 289.668C2227.35 300.914 2236.78 309.678 2248.85 315.962C2260.92 322.081 2275.14 325.14 2291.51 325.14ZM2496.27 244.771H2576.14C2588.38 244.771 2598.14 241.711 2605.41 235.593C2612.86 229.474 2616.58 221.288 2616.58 211.035C2616.58 200.617 2612.86 192.431 2605.41 186.478C2598.14 180.359 2588.38 177.3 2576.14 177.3H2493.05L2503.46 164.897V343H2480.15V156.96H2576.89C2589.46 156.96 2600.45 159.275 2609.88 163.905C2619.31 168.37 2626.66 174.654 2631.96 182.757C2637.41 190.86 2640.14 200.286 2640.14 211.035C2640.14 221.619 2637.41 230.962 2631.96 239.066C2626.66 247.169 2619.31 253.535 2609.88 258.166C2600.45 262.631 2589.46 264.863 2576.89 264.863H2496.27V244.771ZM2537.45 255.933H2566.22L2643.86 343H2614.84L2537.45 255.933ZM2778.27 168.122H2801.59V343H2778.27V168.122ZM2698.4 156.96H2881.46V177.548H2698.4V156.96ZM2957.02 156.96H2980.34V343H2957.02V156.96ZM3110.81 156.96H3134.13V343H3110.81V156.96ZM2968.93 239.314H3123.46V259.902H2968.93V239.314ZM3299.22 343V254.941H3322.54V343H3299.22ZM3211.16 156.96H3237.95L3318.57 256.925H3303.44L3383.56 156.96H3410.35L3318.32 271.561L3303.68 271.809L3211.16 156.96Z" fill="#A88D2F"/>
<path d="M422.833 289.611H49.1667V162.781C49.1667 156.035 52.6281 149.752 58.3314 146.153L220.247 43.8861C229.874 37.8091 242.126 37.8091 251.753 43.8861L413.669 146.153C419.372 149.762 422.833 156.035 422.833 162.781V289.611Z" fill="url(#paint0_linear_119_207)"/>
<path d="M80.2988 68.0399H390.309C394.213 68.0399 397.847 71.5569 397.847 76.4813V276.519H72.7598V76.4813C72.7599 71.5569 76.3945 68.0399 80.2988 68.0399Z" fill="url(#paint1_linear_119_207)" stroke="#CAAC4C" stroke-width="7.0671"/>
<path d="M422.833 167.167V376.184C422.833 385.653 415.026 393.333 405.389 393.333H94.0066L141.236 331.118L422.833 167.167Z" fill="url(#paint2_linear_119_207)"/>
<path d="M49.1667 167.167V376.184C49.1667 385.653 56.9744 393.333 66.6111 393.333H405.399C410.906 393.333 415.753 390.776 418.949 386.863L49.1667 167.167Z" fill="url(#paint3_linear_119_207)"/>
<path d="M235.24 108.827L253.185 147.732L295.731 152.777L264.276 181.866L272.626 223.888L235.24 202.961L197.855 223.888L206.205 181.866L174.749 152.777L217.295 147.732L235.24 108.827Z" fill="url(#paint4_linear_119_207)"/>
<defs>
<linearGradient id="paint0_linear_119_207" x1="236" y1="37.3175" x2="236" y2="289.061" gradientUnits="userSpaceOnUse">
<stop stop-color="#A88D2F"/>
<stop offset="1" stop-color="#A48828"/>
</linearGradient>
<linearGradient id="paint1_linear_119_207" x1="235.303" y1="69.2248" x2="235.303" y2="225.975" gradientUnits="userSpaceOnUse">
<stop stop-color="white"/>
<stop offset="0.24" stop-color="#F8F8F7"/>
<stop offset="1" stop-color="#E3E3E1"/>
</linearGradient>
<linearGradient id="paint2_linear_119_207" x1="254.546" y1="274.704" x2="373.637" y2="445.145" gradientUnits="userSpaceOnUse">
<stop stop-color="#E0C15C"/>
<stop offset="0.32" stop-color="#C9AC4B"/>
<stop offset="0.671" stop-color="#B79A3B"/>
<stop offset="1" stop-color="#A48828"/>
</linearGradient>
<linearGradient id="paint3_linear_119_207" x1="30.2278" y1="267.82" x2="392.96" y2="443.729" gradientUnits="userSpaceOnUse">
<stop stop-color="#C7AB4B"/>
<stop offset="1" stop-color="#A88D2F"/>
</linearGradient>
<linearGradient id="paint4_linear_119_207" x1="235.24" y1="108.827" x2="235.24" y2="236.035" gradientUnits="userSpaceOnUse">
<stop stop-color="#E0C15C"/>
<stop offset="1" stop-color="#AC9031"/>
</linearGradient>
</defs>
</svg>
