<svg width="472" height="472" viewBox="0 0 472 472" fill="none" xmlns="http://www.w3.org/2000/svg">
<path d="M422.833 289.611H49.1667V162.781C49.1667 156.035 52.6281 149.752 58.3314 146.153L220.247 43.8861C229.874 37.8091 242.126 37.8091 251.753 43.8861L413.669 146.153C419.372 149.762 422.833 156.035 422.833 162.781V289.611Z" fill="url(#paint0_linear_119_200)"/>
<path d="M80.2988 68.0399H390.309C394.213 68.0399 397.847 71.5569 397.847 76.4813V276.519H72.7598V76.4813C72.7599 71.5569 76.3945 68.0399 80.2988 68.0399Z" fill="url(#paint1_linear_119_200)" stroke="#CAAC4C" stroke-width="7.0671"/>
<path d="M422.833 167.167V376.184C422.833 385.653 415.026 393.333 405.389 393.333H94.0066L141.236 331.118L422.833 167.167Z" fill="url(#paint2_linear_119_200)"/>
<path d="M49.1667 167.167V376.184C49.1667 385.653 56.9744 393.333 66.6111 393.333H405.399C410.906 393.333 415.753 390.776 418.949 386.863L49.1667 167.167Z" fill="url(#paint3_linear_119_200)"/>
<path d="M235.24 108.827L253.185 147.732L295.731 152.777L264.276 181.866L272.626 223.888L235.24 202.961L197.855 223.888L206.205 181.866L174.749 152.777L217.295 147.732L235.24 108.827Z" fill="url(#paint4_linear_119_200)"/>
<defs>
<linearGradient id="paint0_linear_119_200" x1="236" y1="37.3175" x2="236" y2="289.061" gradientUnits="userSpaceOnUse">
<stop stop-color="#A88D2F"/>
<stop offset="1" stop-color="#A48828"/>
</linearGradient>
<linearGradient id="paint1_linear_119_200" x1="235.303" y1="69.2248" x2="235.303" y2="225.975" gradientUnits="userSpaceOnUse">
<stop stop-color="white"/>
<stop offset="0.24" stop-color="#F8F8F7"/>
<stop offset="1" stop-color="#E3E3E1"/>
</linearGradient>
<linearGradient id="paint2_linear_119_200" x1="254.546" y1="274.704" x2="373.637" y2="445.145" gradientUnits="userSpaceOnUse">
<stop stop-color="#E0C15C"/>
<stop offset="0.32" stop-color="#C9AC4B"/>
<stop offset="0.671" stop-color="#B79A3B"/>
<stop offset="1" stop-color="#A48828"/>
</linearGradient>
<linearGradient id="paint3_linear_119_200" x1="30.2278" y1="267.82" x2="392.96" y2="443.729" gradientUnits="userSpaceOnUse">
<stop stop-color="#C7AB4B"/>
<stop offset="1" stop-color="#A88D2F"/>
</linearGradient>
<linearGradient id="paint4_linear_119_200" x1="235.24" y1="108.827" x2="235.24" y2="236.035" gradientUnits="userSpaceOnUse">
<stop stop-color="#E0C15C"/>
<stop offset="1" stop-color="#AC9031"/>
</linearGradient>
</defs>
</svg>
