<svg width="2407" height="472" viewBox="0 0 2407 472" fill="none" xmlns="http://www.w3.org/2000/svg">
<path d="M41.6979 226.387H95.1416C101.667 226.387 106.757 224.886 110.411 221.885C114.066 218.883 115.893 214.707 115.893 209.356C115.893 203.874 114.066 199.698 110.411 196.827C106.757 193.825 101.667 192.324 95.1416 192.324H36.0207L54.2268 172.944V309H13.7035V162.176H100.819C112.043 162.176 121.831 164.199 130.184 168.245C138.536 172.16 145.062 177.642 149.76 184.689C154.458 191.606 156.808 199.829 156.808 209.356C156.808 218.622 154.458 226.779 149.76 233.826C145.062 240.874 138.536 246.355 130.184 250.271C121.831 254.186 112.043 256.144 100.819 256.144H41.6979V226.387ZM63.6235 240.287H109.237L161.897 309H114.914L63.6235 240.287ZM329.004 220.906V250.271H221.529V220.906H329.004ZM249.132 235.588L239.54 294.513L223.095 276.112H335.464V309H199.016L210.175 235.588L199.016 162.176H334.485V195.065H223.095L239.54 176.663L249.132 235.588ZM874.262 280.81V248.117H975.473V280.81H874.262ZM952.372 162.176L1019.13 309H975.864L919.875 179.404H931.621L875.437 309H832.173L898.929 162.176H952.372ZM1227.92 291.773H1215.2L1251.81 162.176H1294.68L1250.04 309H1197.77L1155.29 183.711H1171.93L1129.26 309H1077.18L1032.35 162.176H1075.42L1112.03 291.773L1099.5 291.577L1142.18 162.176H1185.05L1227.92 291.773ZM1350.05 280.81V248.117H1451.26V280.81H1350.05ZM1428.16 162.176L1494.92 309H1451.66L1395.67 179.404H1407.41L1351.23 309H1307.97L1374.72 162.176H1428.16ZM1560.31 226.387H1613.76C1620.28 226.387 1625.37 224.886 1629.03 221.885C1632.68 218.883 1634.51 214.707 1634.51 209.356C1634.51 203.874 1632.68 199.698 1629.03 196.827C1625.37 193.825 1620.28 192.324 1613.76 192.324H1554.63L1572.84 172.944V309H1532.32V162.176H1619.43C1630.66 162.176 1640.44 164.199 1648.8 168.245C1657.15 172.16 1663.68 177.642 1668.37 184.689C1673.07 191.606 1675.42 199.829 1675.42 209.356C1675.42 218.622 1673.07 226.779 1668.37 233.826C1663.68 240.874 1657.15 246.355 1648.8 250.271C1640.44 254.186 1630.66 256.144 1619.43 256.144H1560.31V226.387ZM1582.24 240.287H1627.85L1680.51 309H1633.53L1582.24 240.287ZM1795.35 162.176C1812.71 162.176 1827.91 165.243 1840.96 171.377C1854.14 177.381 1864.32 185.929 1871.5 197.023C1878.81 207.985 1882.46 220.841 1882.46 235.588C1882.46 250.336 1878.81 263.256 1871.5 274.35C1864.32 285.312 1854.14 293.861 1840.96 299.995C1827.91 305.998 1812.71 309 1795.35 309H1722.13V162.176H1795.35ZM1762.46 291.968L1743.08 272.979H1798.48C1807.23 272.979 1814.79 271.478 1821.19 268.477C1827.72 265.344 1832.74 260.972 1836.26 255.36C1839.79 249.749 1841.55 243.158 1841.55 235.588C1841.55 227.888 1839.79 221.297 1836.26 215.816C1832.74 210.204 1827.72 205.897 1821.19 202.896C1814.79 199.763 1807.23 198.197 1798.48 198.197H1743.08L1762.46 179.208V291.968ZM1926.86 162.176H1967.38V309H1926.86V162.176ZM2154.28 280.614L2141.75 283.159V162.176H2181.1V309H2130L2045.23 188.213L2057.57 185.668V309H2018.22V162.176H2070.68L2154.28 280.614ZM2382.28 245.376C2381.89 254.251 2380.06 262.734 2376.8 270.826C2373.67 278.787 2369.03 285.9 2362.9 292.164C2356.89 298.429 2349.33 303.323 2340.19 306.847C2331.18 310.37 2320.68 312.132 2308.67 312.132C2297.19 312.132 2286.42 310.501 2276.37 307.238C2266.32 303.845 2257.45 298.885 2249.75 292.36C2242.18 285.835 2236.24 277.808 2231.93 268.281C2227.76 258.754 2225.67 247.856 2225.67 235.588C2225.67 223.32 2227.82 212.423 2232.13 202.896C2236.43 193.368 2242.44 185.342 2250.14 178.816C2257.97 172.291 2266.97 167.397 2277.15 164.134C2287.46 160.741 2298.69 159.044 2310.82 159.044C2327.01 159.044 2340.97 161.524 2352.72 166.483C2364.46 171.443 2373.93 178.229 2381.1 186.843C2388.28 195.456 2392.92 205.44 2395 216.795H2354.09C2352.78 211.835 2350.11 207.594 2346.06 204.07C2342.15 200.416 2337.19 197.675 2331.18 195.848C2325.31 193.89 2318.59 192.912 2311.02 192.912C2301.88 192.912 2293.99 194.543 2287.33 197.806C2280.68 200.938 2275.52 205.701 2271.87 212.096C2268.21 218.361 2266.39 226.192 2266.39 235.588C2266.39 245.115 2268.34 253.142 2272.26 259.667C2276.17 266.193 2281.72 271.087 2288.9 274.35C2296.21 277.612 2304.76 279.244 2314.54 279.244C2324.07 279.244 2332.49 277.939 2339.8 275.328C2347.11 272.588 2352.91 268.607 2357.22 263.387C2361.66 258.166 2364.2 251.902 2364.86 244.593L2382.28 245.376ZM2318.46 261.625V233.043H2396.37V309H2367.6L2361.92 250.858L2369.55 261.625H2318.46Z" fill="#CAAC4C"/>
<path d="M774.833 289.611H401.167V162.781C401.167 156.035 404.628 149.752 410.331 146.153L572.247 43.8861C581.874 37.8091 594.126 37.8091 603.753 43.8861L765.669 146.153C771.372 149.762 774.833 156.035 774.833 162.781V289.611Z" fill="url(#paint0_linear_155_132)"/>
<path d="M432.299 68.0399H742.309C746.213 68.0399 749.847 71.5569 749.847 76.4813V276.519H424.76V76.4813C424.76 71.5569 428.395 68.0399 432.299 68.0399Z" fill="url(#paint1_linear_155_132)" stroke="#CAAC4C" stroke-width="7.0671"/>
<path d="M774.833 167.167V376.184C774.833 385.653 767.026 393.333 757.389 393.333H446.007L493.236 331.118L774.833 167.167Z" fill="url(#paint2_linear_155_132)"/>
<path d="M401.167 167.167V376.184C401.167 385.653 408.974 393.333 418.611 393.333H757.399C762.906 393.333 767.753 390.777 770.949 386.863L401.167 167.167Z" fill="url(#paint3_linear_155_132)"/>
<path d="M587.24 108.827L605.185 147.732L647.731 152.777L616.276 181.866L624.626 223.888L587.24 202.961L549.855 223.888L558.205 181.866L526.749 152.777L569.295 147.732L587.24 108.827Z" fill="url(#paint4_linear_155_132)"/>
<defs>
<linearGradient id="paint0_linear_155_132" x1="588" y1="37.3174" x2="588" y2="289.061" gradientUnits="userSpaceOnUse">
<stop stop-color="#A88D2F"/>
<stop offset="1" stop-color="#A48828"/>
</linearGradient>
<linearGradient id="paint1_linear_155_132" x1="587.303" y1="69.2248" x2="587.303" y2="225.975" gradientUnits="userSpaceOnUse">
<stop stop-color="white"/>
<stop offset="0.24" stop-color="#F8F8F7"/>
<stop offset="1" stop-color="#E3E3E1"/>
</linearGradient>
<linearGradient id="paint2_linear_155_132" x1="606.546" y1="274.704" x2="725.637" y2="445.145" gradientUnits="userSpaceOnUse">
<stop stop-color="#E0C15C"/>
<stop offset="0.32" stop-color="#C9AC4B"/>
<stop offset="0.671" stop-color="#B79A3B"/>
<stop offset="1" stop-color="#A48828"/>
</linearGradient>
<linearGradient id="paint3_linear_155_132" x1="382.228" y1="267.821" x2="744.96" y2="443.729" gradientUnits="userSpaceOnUse">
<stop stop-color="#C7AB4B"/>
<stop offset="1" stop-color="#A88D2F"/>
</linearGradient>
<linearGradient id="paint4_linear_155_132" x1="587.24" y1="108.827" x2="587.24" y2="236.035" gradientUnits="userSpaceOnUse">
<stop stop-color="#E0C15C"/>
<stop offset="1" stop-color="#AC9031"/>
</linearGradient>
</defs>
</svg>
