<svg width="1734" height="282" viewBox="0 0 1734 282" fill="none" xmlns="http://www.w3.org/2000/svg">
<path d="M28.5257 65.9989H70.8023C76.3611 65.9989 80.7497 64.731 83.968 62.1954C87.2838 59.5623 88.9417 55.9539 88.9417 51.3703C88.9417 46.7867 87.2838 43.227 83.968 40.6914C80.7497 38.1558 76.3611 36.888 70.8023 36.888H24.8686L36.1326 24.1611V127H11.264V17.2857H73.728C81.725 17.2857 88.7467 18.7486 94.7931 21.6743C100.84 24.5025 105.57 28.4522 108.983 33.5234C112.396 38.5947 114.103 44.5436 114.103 51.3703C114.103 58.0994 112.396 63.9996 108.983 69.0709C105.57 74.1421 100.84 78.1406 94.7931 81.0663C88.7467 83.8945 81.725 85.3086 73.728 85.3086H28.5257V65.9989ZM47.5429 75.6537H75.9223L117.321 127H88.2103L47.5429 75.6537ZM240.944 62.6343V81.6514H162.389V62.6343H240.944ZM179.065 72.1429L171.751 118.662L160.926 106.374H245.479V127H146.736L155.221 72.1429L146.736 17.2857H244.747V37.912H160.926L171.751 25.624L179.065 72.1429ZM602.069 103.887V83.6994H678.137V103.887H602.069ZM656.633 17.2857L707.979 127H681.502L636.592 27.3794H644.784L599.874 127H573.397L624.743 17.2857H656.633ZM862.355 116.906H853.871L884.445 17.2857H910.483L875.229 127H843.485L808.961 29.8663H819.786L785.263 127H753.519L718.264 17.2857H744.595L774.877 116.906L766.685 116.76L801.208 17.2857H827.686L862.355 116.906ZM949.463 103.887V83.6994H1025.53V103.887H949.463ZM1004.03 17.2857L1055.37 127H1028.9L983.986 27.3794H992.178L947.269 127H920.791L972.137 17.2857H1004.03ZM1102 65.9989H1144.28C1149.84 65.9989 1154.22 64.731 1157.44 62.1954C1160.76 59.5623 1162.42 55.9539 1162.42 51.3703C1162.42 46.7867 1160.76 43.227 1157.44 40.6914C1154.22 38.1558 1149.84 36.888 1144.28 36.888H1098.34L1109.61 24.1611V127H1084.74V17.2857H1147.2C1155.2 17.2857 1162.22 18.7486 1168.27 21.6743C1174.31 24.5025 1179.04 28.4522 1182.46 33.5234C1185.87 38.5947 1187.58 44.5436 1187.58 51.3703C1187.58 58.0994 1185.87 63.9996 1182.46 69.0709C1179.04 74.1421 1174.31 78.1406 1168.27 81.0663C1162.22 83.8945 1155.2 85.3086 1147.2 85.3086H1102V65.9989ZM1121.02 75.6537H1149.4L1190.8 127H1161.68L1121.02 75.6537ZM1275.8 17.2857C1288.57 17.2857 1299.74 19.5775 1309.3 24.1611C1318.95 28.7448 1326.46 35.1326 1331.83 43.3246C1337.19 51.5166 1339.87 61.1227 1339.87 72.1429C1339.87 83.0655 1337.19 92.6716 1331.83 100.961C1326.46 109.153 1318.95 115.541 1309.3 120.125C1299.74 124.708 1288.57 127 1275.8 127H1223.72V17.2857H1275.8ZM1248.44 117.199L1235.86 105.057H1277.7C1285.11 105.057 1291.6 103.692 1297.16 100.961C1302.81 98.2305 1307.15 94.3783 1310.18 89.4046C1313.2 84.4309 1314.71 78.677 1314.71 72.1429C1314.71 65.5112 1313.2 59.7573 1310.18 54.8811C1307.15 49.9074 1302.81 46.0552 1297.16 43.3246C1291.6 40.5939 1285.11 39.2286 1277.7 39.2286H1235.86L1248.44 27.0869V117.199ZM1374.56 17.2857H1399.43V127H1374.56V17.2857ZM1541.07 110.616L1532.44 111.933V17.2857H1556.58V127H1525.12L1454.91 32.3531L1463.39 31.0366V127H1439.4V17.2857H1471.58L1541.07 110.616ZM1707.56 79.4571C1707.46 86.0888 1706.14 92.4278 1703.61 98.4743C1701.17 104.423 1697.66 109.738 1693.08 114.419C1688.49 119.003 1682.84 122.611 1676.11 125.245C1669.38 127.878 1661.58 129.194 1652.7 129.194C1644.12 129.194 1636.07 127.926 1628.56 125.391C1621.15 122.758 1614.62 119.003 1608.96 114.127C1603.4 109.251 1599.06 103.302 1595.94 96.28C1592.82 89.1608 1591.26 81.115 1591.26 72.1429C1591.26 63.1707 1592.82 55.1737 1595.94 48.152C1599.16 41.0328 1603.6 35.035 1609.25 30.1589C1614.91 25.2827 1621.54 21.5768 1629.15 19.0411C1636.76 16.408 1645.04 15.0914 1654.02 15.0914C1665.72 15.0914 1675.86 16.9444 1684.44 20.6503C1693.03 24.2587 1699.95 29.2811 1705.22 35.7177C1710.58 42.1543 1713.9 49.5173 1715.16 57.8069H1690.15C1689.17 53.3208 1687.03 49.4686 1683.71 46.2503C1680.49 43.032 1676.35 40.5451 1671.28 38.7897C1666.31 37.0343 1660.55 36.1566 1654.02 36.1566C1646.31 36.1566 1639.63 37.5707 1633.98 40.3989C1628.42 43.1295 1624.08 47.1768 1620.96 52.5406C1617.93 57.9044 1616.42 64.4385 1616.42 72.1429C1616.42 79.8472 1618.03 86.4301 1621.25 91.8914C1624.47 97.3528 1629.05 101.546 1635 104.472C1640.95 107.3 1647.97 108.714 1656.07 108.714C1663.96 108.714 1670.89 107.495 1676.84 105.057C1682.79 102.522 1687.47 99.0107 1690.88 94.5246C1694.39 89.941 1696.39 84.5284 1696.88 78.2869L1707.56 79.4571ZM1659.43 89.5509V71.5577H1716.33V127H1698.49L1695.12 82.5291L1700.24 89.5509H1659.43Z" fill="#CAAC4C"/>
<path d="M441.056 20.2979C460.687 22.6531 484.66 18.0289 503.749 20.4951C505.845 20.7664 507.486 20.9514 508.633 23.0107L509.422 72.7939L511.173 80.9082L543.803 107.741L543.84 272.788C544.727 274.996 541.053 281.974 539.462 281.975H289.13V282C283.42 280.261 287.256 257.695 287.317 251.861C287.872 204.816 285.492 158.14 287.355 111.28C289.254 100.379 312.61 89.2565 320.366 81.4014L320.773 25.083C321.599 22.6291 325.039 22.0363 327.333 21.7773C346.422 19.57 369.237 23.6893 388.745 21.5312L416.146 0L441.056 20.2979ZM308.232 270.926V272.738C308.442 274.476 309.81 272.136 310.094 272.135H522.814L415.961 184.679L308.232 270.926ZM413.051 48.5371L405.664 74.8281H374.848C374.416 77.0108 375.957 77.8741 377.289 79.1689C380.631 82.4123 396.095 92.5734 396.859 95.459L388.412 124.154L415.11 108.37L440.797 124.18C443.349 124.624 442.943 123.18 442.425 121.318C440.082 112.896 434.84 104.115 433.04 95.3477C433.88 91.0067 453.005 81.4993 453.757 74.8281H426.011L416.146 47.6865L413.051 48.5371Z" fill="#CAAC4C"/>
<path d="M510.483 93.3257L531.89 110.491L532.667 113.032L445.236 183.753L450.021 190.215L452.487 190.166L533.888 124.142V268.422C502.332 242.822 471.404 214.447 438.824 190.24C433.361 186.183 421.288 175.812 414.876 175.886C410.51 175.935 390.989 191.411 386.044 195.173C356.374 217.801 329.109 243.796 299.612 266.585C298.366 267.547 298.046 268.953 295.9 268.422V121.676L378.584 190.154C381.519 191.646 386.266 186.898 385.724 184.123C358.187 158.079 326.483 136.696 298.391 111.194L320.563 94.5465V119.826C328.48 128.717 340.06 135.155 349.506 142.677C355.191 147.203 391.1 178.426 393.961 178.426C404.579 171.804 408.106 163.998 422.373 168.475C427.787 170.176 435.174 178.932 440.156 176.576L510.47 118.605V93.3257H510.483Z" fill="black"/>
<path opacity="0.67" d="M596.191 270.203L606.5 192.426C606.844 189.639 606.424 187.749 605.24 186.756C604.095 185.763 601.46 185.095 597.337 184.751L598.654 181.773H632.903L631.643 184.751C628.894 184.904 626.718 185.267 625.114 185.839C623.51 186.374 622.327 187.252 621.563 188.474C620.799 189.696 620.246 191.395 619.902 193.571L611.941 251.188L645.217 207.145L647.164 192.426C647.508 189.791 647.24 187.939 646.362 186.87C645.484 185.801 643.594 185.095 640.692 184.751L642.067 181.773H675.113L673.739 184.751C670.646 184.904 668.183 185.267 666.351 185.839C664.556 186.374 663.22 187.252 662.341 188.474C661.463 189.696 660.871 191.395 660.566 193.571L652.548 251.303L692.238 197.58C695.331 193.419 696.419 190.44 695.503 188.646C694.586 186.851 691.646 185.553 686.683 184.751L688 181.773H720.13L718.755 184.751C716.197 185.171 714.021 185.668 712.226 186.24C710.432 186.813 708.828 187.577 707.415 188.531C706.003 189.448 704.609 190.67 703.234 192.197C701.86 193.686 700.333 195.557 698.653 197.81L644.873 270.203H636.798L644.186 214.476L645.675 215.049L603.808 270.203H596.191ZM734.006 270.203C731.333 270.203 729.405 269.63 728.222 268.485C727.076 267.301 726.503 265.545 726.503 263.215C726.503 261.574 726.847 259.703 727.534 257.603C728.222 255.464 729.233 253.059 730.57 250.386L745.346 220.432C746.377 218.256 746.893 216.442 746.893 214.991C746.893 213.121 745.957 212.185 744.086 212.185C742.75 212.185 741.146 212.796 739.275 214.018C737.404 215.24 735.4 216.958 733.262 219.172C731.162 221.349 729.004 223.888 726.79 226.79C724.575 229.653 722.437 232.765 720.375 236.125C718.313 239.485 716.462 242.941 714.82 246.492L704.339 269H691.796L728.909 179.482L719.974 177.993L719.688 176.103H743.571L721.807 226.389L722.437 226.561C727.248 219.879 731.62 215.106 735.553 212.242C739.524 209.341 743.647 207.89 747.924 207.89C751.169 207.89 753.746 208.73 755.655 210.41C757.565 212.051 758.519 214.419 758.519 217.511C758.519 219.039 758.309 220.7 757.889 222.494C757.469 224.289 756.763 226.179 755.77 228.164L741.853 256.343C741.242 257.641 740.764 258.748 740.421 259.664C740.077 260.581 739.905 261.344 739.905 261.955C739.905 263.025 740.44 263.559 741.509 263.559C742.731 263.559 744.468 262.662 746.721 260.867C748.974 259.034 751.665 256.438 754.796 253.078L757.374 254.854C753.288 259.932 749.317 263.769 745.461 266.365C741.643 268.924 737.824 270.203 734.006 270.203ZM776.877 270.203C772.791 270.203 769.584 268.847 767.255 266.136C764.926 263.387 763.761 259.607 763.761 254.796C763.761 250.711 764.582 246.473 766.224 242.082C767.904 237.691 770.157 233.472 772.982 229.424C775.846 225.339 779.072 221.673 782.661 218.428C786.289 215.182 790.05 212.605 793.944 210.696C797.839 208.749 801.619 207.775 805.284 207.775C807.652 207.775 809.637 208.195 811.241 209.035C812.844 209.837 814.334 211.192 815.708 213.101L817.541 208.921H830.771L810.611 258.175C809.847 260.123 809.561 261.516 809.752 262.356C809.943 263.158 810.496 263.559 811.413 263.559C812.176 263.559 813.093 263.235 814.162 262.585C815.269 261.898 816.644 260.791 818.285 259.264C819.927 257.736 821.932 255.694 824.299 253.135L826.876 254.854C822.638 260.046 818.705 263.903 815.078 266.423C811.451 268.943 807.957 270.203 804.597 270.203C799.633 270.203 797.152 267.931 797.152 263.387C797.152 261.745 797.438 260.008 798.011 258.175C798.583 256.343 799.614 254.128 801.103 251.532L800.416 251.188C795.949 257.908 791.863 262.757 788.16 265.735C784.456 268.714 780.695 270.203 776.877 270.203ZM779.855 265.678C781.611 265.678 783.731 264.628 786.212 262.528C788.732 260.428 791.405 257.564 794.231 253.937C797.094 250.272 799.901 246.11 802.65 241.452C805.399 236.793 807.862 231.906 810.038 226.79C811.107 224.308 811.775 222.418 812.043 221.12C812.348 219.783 812.501 218.6 812.501 217.569C812.501 215.774 812.023 214.4 811.069 213.445C810.114 212.491 808.854 212.013 807.289 212.013C805.113 212.013 802.65 213.101 799.901 215.278C797.152 217.454 794.383 220.337 791.596 223.926C788.809 227.477 786.232 231.372 783.864 235.61C781.535 239.848 779.645 244.048 778.194 248.21C776.781 252.372 776.075 256.094 776.075 259.378C776.075 261.516 776.361 263.101 776.934 264.132C777.545 265.163 778.519 265.678 779.855 265.678ZM842.083 270.203C836.852 270.203 834.237 267.855 834.237 263.158C834.237 261.975 834.39 260.657 834.695 259.206C835.039 257.717 835.669 255.732 836.585 253.25C837.54 250.73 838.933 247.332 840.766 243.055L853.71 212.987H844.374L845.806 208.921H855.542L862.644 192.254L876.963 190.937L869.173 208.921H879.368L877.879 212.987H867.398L854.683 242.483C852.927 246.453 851.552 249.623 850.56 251.99C849.567 254.357 848.822 256.152 848.326 257.374C847.868 258.595 847.562 259.474 847.41 260.008C847.257 260.543 847.181 260.982 847.181 261.325C847.181 262.815 847.906 263.559 849.357 263.559C850.541 263.559 852.125 262.795 854.111 261.268C856.096 259.703 858.692 257.221 861.9 253.823L864.477 255.369C860.506 260.256 856.592 263.96 852.736 266.48C848.918 268.962 845.367 270.203 842.083 270.203ZM922.717 270.203C918.898 270.203 915.5 269.687 912.522 268.656C909.582 267.625 907.272 266.251 905.592 264.533C903.874 262.776 903.015 260.829 903.015 258.691C903.015 257.202 903.549 255.942 904.618 254.911C905.687 253.88 907.062 253.364 908.742 253.364C910.689 253.364 912.064 253.937 912.866 255.083C913.667 256.19 914.278 257.584 914.698 259.264C915.157 261.173 915.92 262.795 916.989 264.132C918.097 265.43 920.044 266.079 922.831 266.079C926.115 266.079 928.635 265.163 930.391 263.33C932.148 261.459 933.026 259.034 933.026 256.056C933.026 254.873 932.816 253.67 932.396 252.448C931.976 251.226 931.25 249.814 930.219 248.21C929.227 246.568 927.795 244.563 925.924 242.196C922.984 238.378 920.903 235.171 919.681 232.574C918.459 229.94 917.848 227.401 917.848 224.957C917.848 221.75 918.822 218.848 920.769 216.251C922.755 213.655 925.389 211.593 928.673 210.066C931.957 208.539 935.584 207.775 939.555 207.775C942.839 207.775 945.893 208.291 948.719 209.321C951.582 210.314 953.873 211.651 955.591 213.331C957.348 215.011 958.226 216.824 958.226 218.771C958.226 220.299 957.672 221.559 956.565 222.552C955.496 223.506 954.14 223.983 952.499 223.983C949.329 223.983 947.478 222.132 946.943 218.428C946.561 215.755 945.893 213.98 944.939 213.101C944.022 212.223 942.476 211.784 940.299 211.784C937.283 211.784 934.935 212.624 933.255 214.304C931.613 215.984 930.792 218.237 930.792 221.062C930.792 222.972 931.308 225.014 932.338 227.191C933.369 229.329 935.126 232.097 937.608 235.495C940.662 239.581 942.762 242.883 943.908 245.403C945.053 247.885 945.626 250.291 945.626 252.62C945.626 256.018 944.614 259.054 942.59 261.726C940.605 264.361 937.875 266.442 934.4 267.969C930.926 269.458 927.031 270.203 922.717 270.203ZM992.294 270.203C989.622 270.203 987.693 269.63 986.51 268.485C985.364 267.301 984.792 265.545 984.792 263.215C984.792 261.574 985.135 259.703 985.823 257.603C986.51 255.464 987.522 253.059 988.858 250.386L1003.63 220.432C1004.67 218.256 1005.18 216.442 1005.18 214.991C1005.18 213.121 1004.25 212.185 1002.37 212.185C1001.04 212.185 999.434 212.796 997.564 214.018C995.693 215.24 993.688 216.958 991.55 219.172C989.45 221.349 987.293 223.888 985.078 226.79C982.863 229.653 980.725 232.765 978.663 236.125C976.602 239.485 974.75 242.941 973.108 246.492L962.627 269H950.084L987.197 179.482L978.263 177.993L977.976 176.103H1001.86L980.095 226.389L980.725 226.561C985.536 219.879 989.908 215.106 993.841 212.242C997.812 209.341 1001.94 207.89 1006.21 207.89C1009.46 207.89 1012.03 208.73 1013.94 210.41C1015.85 212.051 1016.81 214.419 1016.81 217.511C1016.81 219.039 1016.6 220.7 1016.18 222.494C1015.76 224.289 1015.05 226.179 1014.06 228.164L1000.14 256.343C999.53 257.641 999.053 258.748 998.709 259.664C998.365 260.581 998.194 261.344 998.194 261.955C998.194 263.025 998.728 263.559 999.797 263.559C1001.02 263.559 1002.76 262.662 1005.01 260.867C1007.26 259.034 1009.95 256.438 1013.08 253.078L1015.66 254.854C1011.58 259.932 1007.61 263.769 1003.75 266.365C999.931 268.924 996.113 270.203 992.294 270.203ZM1042.58 270.203C1036.81 270.203 1032.35 268.504 1029.18 265.105C1026.05 261.669 1024.48 256.954 1024.48 250.959C1024.48 246.835 1025.24 242.712 1026.77 238.588C1028.3 234.464 1030.4 230.57 1033.07 226.904C1035.74 223.201 1038.8 219.917 1042.23 217.053C1045.67 214.19 1049.34 211.937 1053.23 210.295C1057.16 208.615 1061.08 207.775 1064.97 207.775C1070.74 207.775 1075.2 209.474 1078.37 212.872C1081.54 216.271 1083.13 220.948 1083.13 226.904C1083.13 231.066 1082.35 235.228 1080.78 239.39C1079.25 243.513 1077.15 247.427 1074.48 251.131C1071.81 254.796 1068.75 258.08 1065.32 260.982C1061.88 263.845 1058.21 266.098 1054.32 267.74C1050.42 269.382 1046.51 270.203 1042.58 270.203ZM1041.55 265.678C1043.65 265.678 1046.01 264.647 1048.65 262.585C1051.28 260.524 1053.92 257.813 1056.55 254.453C1059.19 251.054 1061.61 247.313 1063.83 243.227C1066.04 239.142 1067.82 235.075 1069.15 231.028C1070.49 226.981 1071.16 223.277 1071.16 219.917C1071.16 217.435 1070.74 215.526 1069.9 214.19C1069.1 212.853 1067.8 212.185 1066 212.185C1063.83 212.185 1061.42 213.197 1058.79 215.221C1056.15 217.206 1053.52 219.879 1050.88 223.239C1048.29 226.561 1045.92 230.226 1043.78 234.235C1041.64 238.206 1039.91 242.253 1038.57 246.377C1037.27 250.463 1036.62 254.224 1036.62 257.66C1036.62 260.256 1037 262.242 1037.77 263.616C1038.57 264.991 1039.83 265.678 1041.55 265.678ZM1128.1 270.203C1125.93 270.203 1124.17 269.592 1122.83 268.37C1121.5 267.148 1120.83 265.506 1120.83 263.445C1120.83 261.994 1121.12 260.333 1121.69 258.462C1122.3 256.553 1123.27 254.281 1124.61 251.646L1123.92 251.36C1120.68 255.98 1117.7 259.664 1114.99 262.414C1112.31 265.125 1109.7 267.091 1107.14 268.313C1104.62 269.496 1101.93 270.088 1099.07 270.088C1095.63 270.088 1093.03 269.21 1091.28 267.454C1089.52 265.659 1088.64 263.082 1088.64 259.722C1088.64 256.591 1089.54 253.269 1091.33 249.756L1105.71 220.662C1106.32 219.478 1106.76 218.447 1107.03 217.569C1107.29 216.691 1107.43 215.965 1107.43 215.392C1107.43 214.591 1107.03 214.19 1106.22 214.19C1105.5 214.19 1104.53 214.533 1103.3 215.221C1102.08 215.87 1100.76 216.767 1099.35 217.912C1097.98 219.058 1096.62 220.375 1095.29 221.864L1092.54 219.86C1095.9 215.927 1099.33 212.93 1102.85 210.868C1106.36 208.806 1109.83 207.775 1113.27 207.775C1115.6 207.775 1117.41 208.329 1118.71 209.436C1120.01 210.505 1120.66 212.128 1120.66 214.304C1120.66 215.946 1120.31 217.893 1119.63 220.146C1118.98 222.399 1117.98 224.862 1116.65 227.534L1102.16 257.545C1101.7 258.576 1101.34 259.569 1101.07 260.524C1100.8 261.44 1100.67 262.242 1100.67 262.929C1100.67 263.807 1100.94 264.495 1101.47 264.991C1102.04 265.487 1102.73 265.735 1103.53 265.735C1104.87 265.735 1106.45 265.105 1108.29 263.845C1110.16 262.547 1112.14 260.753 1114.24 258.462C1116.34 256.133 1118.46 253.441 1120.6 250.386C1122.78 247.332 1124.88 244.029 1126.9 240.478C1128.96 236.927 1130.83 233.281 1132.51 229.539L1141.79 208.921H1155.02L1133.37 259.092C1132.57 260.886 1132.17 262.261 1132.17 263.215C1132.17 263.674 1132.32 264.017 1132.63 264.246C1132.93 264.475 1133.3 264.59 1133.72 264.59C1134.98 264.59 1136.68 263.712 1138.81 261.955C1140.99 260.199 1143.47 257.717 1146.26 254.51L1148.89 256.343C1145.27 260.734 1141.68 264.151 1138.13 266.595C1134.58 269 1131.23 270.203 1128.1 270.203ZM1161.6 270.203C1159.42 270.203 1157.74 269.592 1156.56 268.37C1155.41 267.11 1154.84 265.411 1154.84 263.273C1154.84 262.471 1154.96 261.535 1155.18 260.466C1155.45 259.397 1155.91 257.927 1156.56 256.056C1157.21 254.185 1158.16 251.684 1159.42 248.554C1160.68 245.384 1162.31 241.356 1164.29 236.469C1166.31 231.582 1168.82 225.568 1171.79 218.428L1188.12 179.482L1179.18 177.993L1178.84 176.103H1203.64L1178.67 234.235C1175.84 240.764 1173.65 245.9 1172.08 249.642C1170.51 253.345 1169.41 256.094 1168.76 257.889C1168.15 259.684 1167.84 260.963 1167.84 261.726C1167.84 262.299 1168.05 262.757 1168.47 263.101C1168.89 263.406 1169.35 263.559 1169.85 263.559C1170.53 263.559 1171.37 263.292 1172.37 262.757C1173.4 262.223 1174.71 261.268 1176.32 259.894C1177.92 258.519 1179.93 256.553 1182.33 253.994L1185.08 255.598C1181.07 260.371 1177.02 263.998 1172.94 266.48C1168.85 268.962 1165.07 270.203 1161.6 270.203ZM1205.87 270.203C1201.67 270.203 1198.44 268.905 1196.19 266.308C1193.97 263.674 1192.86 259.894 1192.86 254.968C1192.86 250.806 1193.67 246.53 1195.27 242.139C1196.87 237.71 1199.05 233.452 1201.8 229.367C1204.55 225.282 1207.66 221.616 1211.13 218.371C1214.65 215.125 1218.31 212.548 1222.13 210.639C1225.99 208.73 1229.77 207.775 1233.47 207.775C1235.88 207.775 1237.88 208.195 1239.49 209.035C1241.13 209.837 1242.67 211.192 1244.12 213.101L1257.47 179.482L1248.48 177.993L1248.02 176.103H1271.73L1239.77 258.175C1239.08 260.046 1238.82 261.421 1238.97 262.299C1239.12 263.139 1239.7 263.559 1240.69 263.559C1241.45 263.559 1242.35 263.235 1243.38 262.585C1244.41 261.898 1245.71 260.791 1247.27 259.264C1248.84 257.736 1250.81 255.694 1253.17 253.135L1255.69 254.854C1251.65 260.046 1247.85 263.903 1244.3 266.423C1240.75 268.943 1237.27 270.203 1233.87 270.203C1231.28 270.203 1229.37 269.535 1228.15 268.198C1226.92 266.862 1226.31 264.915 1226.31 262.356C1226.31 260.944 1226.62 259.397 1227.23 257.717C1227.84 255.999 1228.76 253.937 1229.98 251.532L1229.52 251.188C1224.98 258.023 1220.89 262.91 1217.26 265.85C1213.67 268.752 1209.87 270.203 1205.87 270.203ZM1208.84 265.678C1210.56 265.678 1212.66 264.628 1215.14 262.528C1217.66 260.39 1220.32 257.488 1223.1 253.823C1225.93 250.157 1228.68 245.995 1231.35 241.337C1234.06 236.679 1236.47 231.83 1238.57 226.79C1239.6 224.308 1240.29 222.418 1240.63 221.12C1241.01 219.822 1241.22 218.638 1241.26 217.569C1240.92 213.865 1239.16 212.013 1235.99 212.013C1233.78 212.013 1231.3 213.121 1228.55 215.335C1225.83 217.511 1223.1 220.394 1220.36 223.983C1217.61 227.534 1215.07 231.448 1212.74 235.724C1210.45 239.963 1208.6 244.182 1207.18 248.382C1205.77 252.544 1205.06 256.266 1205.06 259.55C1205.06 261.612 1205.41 263.158 1206.09 264.189C1206.78 265.182 1207.7 265.678 1208.84 265.678ZM1286.02 207.374L1284.71 203.193C1287.57 201.971 1290.22 200.597 1292.67 199.07C1295.15 197.542 1297.15 196.053 1298.68 194.602C1300.21 193.113 1300.97 191.872 1300.97 190.88C1300.97 189.772 1300.05 188.989 1298.22 188.531C1296.24 187.959 1294.73 187.023 1293.7 185.725C1292.67 184.389 1292.15 182.899 1292.15 181.258C1292.15 178.89 1292.93 176.981 1294.5 175.53C1296.06 174.041 1298.11 173.297 1300.63 173.297C1303.38 173.297 1305.57 174.175 1307.21 175.931C1308.89 177.688 1309.73 180.036 1309.73 182.976C1309.73 187.481 1307.6 191.91 1303.32 196.263C1299.04 200.578 1293.28 204.281 1286.02 207.374ZM1318.95 270.203C1314.37 270.203 1310.69 269.038 1307.9 266.709C1305.11 264.342 1303.72 261.115 1303.72 257.03C1303.72 253.67 1304.88 250.157 1307.21 246.492C1309.54 242.826 1313.48 238.244 1319.01 232.746C1320.69 231.066 1322.16 229.501 1323.42 228.05C1324.68 226.599 1325.83 225.167 1326.86 223.754C1327.89 222.342 1328.9 220.833 1329.89 219.23H1312.37C1308.93 219.23 1306.39 219.783 1304.75 220.891C1303.11 221.96 1302.29 223.602 1302.29 225.816C1302.29 227.84 1302.99 229.329 1304.41 230.283L1304.81 229.825C1304.46 229.443 1304.2 229.023 1304.01 228.565C1303.81 228.107 1303.72 227.592 1303.72 227.019C1303.72 225.721 1304.18 224.69 1305.09 223.926C1306.05 223.124 1307.16 222.723 1308.42 222.723C1309.87 222.723 1311.03 223.162 1311.91 224.041C1312.79 224.881 1313.23 225.988 1313.23 227.362C1313.23 228.928 1312.69 230.169 1311.62 231.085C1310.55 232.002 1309.14 232.46 1307.39 232.46C1304.94 232.46 1302.82 231.582 1301.03 229.825C1299.27 228.031 1298.39 225.53 1298.39 222.322C1298.39 218.084 1300.15 214.801 1303.66 212.471C1307.18 210.104 1312.58 208.921 1319.87 208.921H1339.92C1338.92 211.059 1338.03 212.911 1337.22 214.476C1336.46 216.041 1335.66 217.55 1334.82 219.001C1333.98 220.452 1333.01 222.055 1331.9 223.812C1330.79 225.53 1329.44 227.63 1327.83 230.112C1325.01 234.388 1322.83 238.053 1321.3 241.108C1319.78 244.124 1318.73 246.778 1318.15 249.069C1317.58 251.322 1317.29 253.46 1317.29 255.484C1317.29 258.614 1317.87 261.02 1319.01 262.7C1320.2 264.38 1321.97 265.22 1324.34 265.22C1326.63 265.22 1329 264.533 1331.44 263.158C1333.92 261.745 1336.35 259.836 1338.71 257.431C1341.08 255.025 1343.26 252.372 1345.24 249.47C1347.72 245.766 1349.73 241.891 1351.26 237.843C1352.82 233.796 1353.6 230.073 1353.6 226.675C1353.6 224.613 1353.38 222.609 1352.92 220.662C1352.5 218.714 1352.29 216.901 1352.29 215.221C1352.29 212.93 1352.86 211.116 1354.01 209.78C1355.15 208.443 1356.7 207.775 1358.64 207.775C1360.4 207.775 1361.79 208.443 1362.83 209.78C1363.89 211.116 1364.43 213.483 1364.43 216.881C1364.43 220.242 1363.84 223.945 1362.65 227.992C1361.51 232.04 1359.85 236.125 1357.67 240.249C1355.53 244.373 1352.97 248.286 1350 251.99C1347.29 255.426 1344.27 258.519 1340.95 261.268C1337.63 264.017 1334.11 266.194 1330.41 267.797C1326.71 269.401 1322.89 270.203 1318.95 270.203ZM1381.32 270.203C1376.43 270.203 1372.58 268.752 1369.75 265.85C1366.96 262.948 1365.57 258.977 1365.57 253.937C1365.57 249.623 1366.43 245.289 1368.15 240.936C1369.9 236.545 1372.29 232.383 1375.31 228.451C1378.32 224.48 1381.76 220.948 1385.62 217.855C1389.47 214.724 1393.54 212.261 1397.82 210.467C1402.09 208.672 1406.33 207.775 1410.53 207.775C1414.39 207.775 1417.4 208.539 1419.58 210.066C1421.76 211.555 1422.84 213.655 1422.84 216.366C1422.84 219.535 1421.26 222.571 1418.09 225.472C1414.96 228.374 1410.49 230.99 1404.69 233.319C1398.88 235.61 1391.99 237.462 1384.01 238.874C1382.07 242.616 1380.6 246.11 1379.6 249.355C1378.61 252.563 1378.11 255.426 1378.11 257.946C1378.11 263.101 1380.29 265.678 1384.64 265.678C1386.9 265.678 1389.32 265.086 1391.92 263.903C1394.51 262.719 1397.15 261.039 1399.82 258.863C1402.49 256.648 1405.07 253.994 1407.55 250.902L1410.19 252.677C1405.45 258.519 1400.68 262.91 1395.87 265.85C1391.06 268.752 1386.21 270.203 1381.32 270.203ZM1386.48 234.923C1390.94 234.006 1395.14 232.479 1399.08 230.341C1403.01 228.202 1406.2 225.778 1408.64 223.067C1411.08 220.356 1412.31 217.741 1412.31 215.221C1412.31 213.006 1411.16 211.899 1408.87 211.899C1406.92 211.899 1404.78 212.681 1402.45 214.247C1400.16 215.774 1397.87 217.874 1395.58 220.547C1393.33 223.22 1391.25 226.255 1389.34 229.653L1386.48 234.923ZM1479.62 270.203C1474.78 270.203 1470.88 269.057 1467.94 266.766C1465.04 264.475 1463.59 261.306 1463.59 257.259C1463.59 255.044 1464.03 252.754 1464.91 250.386C1465.82 248.019 1467.33 245.403 1469.43 242.54C1471.53 239.676 1474.37 236.412 1477.96 232.746C1479.64 230.99 1481.11 229.386 1482.37 227.935C1483.67 226.484 1484.84 225.072 1485.87 223.697C1486.9 222.284 1487.91 220.795 1488.9 219.23H1471.32C1467.85 219.23 1465.29 219.783 1463.65 220.891C1462.04 221.96 1461.24 223.602 1461.24 225.816C1461.24 226.809 1461.45 227.687 1461.87 228.451C1462.29 229.214 1462.79 229.825 1463.36 230.283L1463.7 229.825C1463.44 229.443 1463.17 229.023 1462.9 228.565C1462.63 228.107 1462.5 227.592 1462.5 227.019C1462.5 225.873 1462.96 224.881 1463.87 224.041C1464.83 223.162 1465.97 222.723 1467.31 222.723C1468.57 222.723 1469.68 223.182 1470.63 224.098C1471.63 224.976 1472.12 226.141 1472.12 227.592C1472.12 229.081 1471.59 230.264 1470.52 231.142C1469.49 232.021 1468.09 232.46 1466.34 232.46C1463.89 232.46 1461.79 231.601 1460.04 229.882C1458.32 228.126 1457.46 225.721 1457.46 222.666C1457.46 218.275 1459.16 214.896 1462.56 212.529C1465.96 210.123 1471.38 208.921 1478.82 208.921H1498.98C1497.91 211.135 1496.94 213.063 1496.06 214.705C1495.22 216.309 1494.38 217.855 1493.54 219.344C1492.74 220.795 1491.8 222.38 1490.74 224.098C1489.67 225.778 1488.39 227.782 1486.9 230.112C1482.93 236.183 1480.29 241.146 1478.99 245.003C1477.7 248.821 1477.05 252.162 1477.05 255.025C1477.05 258.118 1477.68 260.485 1478.94 262.127C1480.2 263.769 1482.13 264.59 1484.72 264.59C1486.71 264.59 1488.85 264.094 1491.14 263.101C1493.43 262.108 1495.76 260.714 1498.12 258.92C1497.67 257.545 1497.28 256.056 1496.98 254.453C1496.71 252.811 1496.58 251.054 1496.58 249.184C1496.58 245.403 1497.17 241.566 1498.35 237.672C1499.58 233.777 1501.24 230.054 1503.34 226.503C1505.44 222.914 1507.82 219.726 1510.5 216.939C1513.17 214.113 1515.96 211.88 1518.86 210.238C1521.8 208.596 1524.68 207.775 1527.51 207.775C1529.87 207.775 1531.72 208.405 1533.06 209.665C1534.4 210.887 1535.07 212.681 1535.07 215.049C1535.07 217.874 1534.03 221.406 1531.97 225.644C1529.95 229.882 1527.09 234.503 1523.38 239.504C1519.68 244.468 1515.34 249.546 1510.38 254.739C1511.26 257.946 1512.6 260.371 1514.39 262.013C1516.22 263.655 1518.42 264.475 1520.98 264.475C1523 264.475 1525.08 263.845 1527.22 262.585C1529.4 261.287 1531.5 259.55 1533.52 257.374C1535.58 255.197 1537.49 252.754 1539.25 250.043C1541.61 246.339 1543.56 242.387 1545.09 238.187C1546.62 233.987 1547.38 230.169 1547.38 226.732C1547.38 224.632 1547.15 222.609 1546.69 220.662C1546.27 218.714 1546.06 216.901 1546.06 215.221C1546.06 212.968 1546.62 211.173 1547.72 209.837C1548.87 208.462 1550.41 207.775 1552.36 207.775C1554.08 207.775 1555.47 208.443 1556.54 209.78C1557.61 211.116 1558.15 213.483 1558.15 216.881C1558.15 220.394 1557.55 224.232 1556.37 228.393C1555.19 232.517 1553.53 236.679 1551.39 240.879C1549.29 245.041 1546.83 248.974 1544 252.677C1541.44 255.999 1538.62 258.996 1535.52 261.669C1532.47 264.304 1529.26 266.385 1525.9 267.912C1522.54 269.439 1519.11 270.203 1515.59 270.203C1512.19 270.203 1509.24 269.592 1506.72 268.37C1504.23 267.11 1502.17 265.411 1500.53 263.273C1497.09 265.449 1493.62 267.148 1490.11 268.37C1486.63 269.592 1483.14 270.203 1479.62 270.203ZM1509.58 249.126C1512.94 245.575 1515.97 241.833 1518.69 237.901C1521.4 233.93 1523.53 229.997 1525.1 226.102C1526.7 222.208 1527.51 218.6 1527.51 215.278C1527.51 212.796 1526.89 211.555 1525.67 211.555C1523.84 211.555 1521.97 212.491 1520.06 214.361C1518.19 216.232 1516.47 218.714 1514.91 221.807C1513.34 224.9 1512.06 228.336 1511.07 232.116C1510.08 235.896 1509.52 239.695 1509.41 243.513C1509.37 245.575 1509.43 247.446 1509.58 249.126ZM1578.84 270.203C1573.08 270.203 1568.61 268.504 1565.44 265.105C1562.31 261.669 1560.74 256.954 1560.74 250.959C1560.74 246.835 1561.51 242.712 1563.04 238.588C1564.56 234.464 1566.66 230.57 1569.34 226.904C1572.01 223.201 1575.06 219.917 1578.5 217.053C1581.94 214.19 1585.6 211.937 1589.5 210.295C1593.43 208.615 1597.34 207.775 1601.24 207.775C1607 207.775 1611.47 209.474 1614.64 212.872C1617.81 216.271 1619.39 220.948 1619.39 226.904C1619.39 231.066 1618.61 235.228 1617.04 239.39C1615.52 243.513 1613.42 247.427 1610.74 251.131C1608.07 254.796 1605.02 258.08 1601.58 260.982C1598.14 263.845 1594.48 266.098 1590.58 267.74C1586.69 269.382 1582.78 270.203 1578.84 270.203ZM1577.81 265.678C1579.91 265.678 1582.28 264.647 1584.91 262.585C1587.55 260.524 1590.18 257.813 1592.82 254.453C1595.45 251.054 1597.88 247.313 1600.09 243.227C1602.31 239.142 1604.08 235.075 1605.42 231.028C1606.75 226.981 1607.42 223.277 1607.42 219.917C1607.42 217.435 1607 215.526 1606.16 214.19C1605.36 212.853 1604.06 212.185 1602.27 212.185C1600.09 212.185 1597.69 213.197 1595.05 215.221C1592.42 217.206 1589.78 219.879 1587.15 223.239C1584.55 226.561 1582.18 230.226 1580.05 234.235C1577.91 238.206 1576.17 242.253 1574.83 246.377C1573.54 250.463 1572.89 254.224 1572.89 257.66C1572.89 260.256 1573.27 262.242 1574.03 263.616C1574.83 264.991 1576.09 265.678 1577.81 265.678ZM1664.56 270.203C1659.49 270.203 1656.95 267.988 1656.95 263.559C1656.95 260.237 1658.32 255.846 1661.07 250.386L1676.02 220.432C1676.48 219.516 1676.82 218.6 1677.05 217.683C1677.32 216.767 1677.45 215.927 1677.45 215.163C1677.45 213.178 1676.46 212.185 1674.47 212.185C1673.02 212.185 1671.34 212.796 1669.43 214.018C1667.56 215.24 1665.56 216.939 1663.42 219.115C1661.28 221.292 1659.1 223.831 1656.89 226.732C1654.71 229.596 1652.59 232.708 1650.53 236.068C1648.51 239.428 1646.66 242.903 1644.98 246.492L1634.32 269H1621.44L1643.09 217.855C1643.81 216.137 1644.17 215.03 1644.17 214.533C1644.17 213.579 1643.72 213.101 1642.8 213.101C1642 213.101 1640.91 213.56 1639.54 214.476C1638.16 215.354 1636.69 216.538 1635.13 218.027C1633.6 219.516 1632.17 221.139 1630.83 222.895L1628.25 220.891C1631.23 216.92 1634.69 213.751 1638.62 211.383C1642.55 208.978 1646.47 207.775 1650.36 207.775C1654.52 207.775 1656.6 209.493 1656.6 212.93C1656.6 214.419 1656.24 216.175 1655.52 218.199C1654.83 220.222 1653.61 222.952 1651.85 226.389L1652.42 226.561C1657.31 219.879 1661.74 215.106 1665.71 212.242C1669.72 209.341 1673.88 207.89 1678.2 207.89C1685.34 207.89 1688.91 211.288 1688.91 218.084C1688.91 221.368 1688.05 224.728 1686.33 228.164L1672.41 256.343C1671.84 257.526 1671.36 258.634 1670.98 259.664C1670.64 260.695 1670.46 261.497 1670.46 262.07C1670.46 263.063 1670.94 263.559 1671.9 263.559C1673.16 263.559 1674.85 262.7 1676.99 260.982C1679.13 259.225 1681.77 256.591 1684.9 253.078L1687.53 254.854C1683.37 260.046 1679.4 263.903 1675.62 266.423C1671.88 268.943 1668.19 270.203 1664.56 270.203ZM1703.37 242.54L1712.07 205.942C1713.29 200.788 1714.32 196.588 1715.16 193.342C1716 190.059 1716.61 187.863 1717 186.756C1717.65 184.885 1718.7 183.396 1720.15 182.289C1721.6 181.143 1723.34 180.57 1725.36 180.57C1727.65 180.57 1729.5 181.296 1730.91 182.747C1732.33 184.198 1733.03 186.049 1733.03 188.302C1733.03 189.448 1732.8 190.727 1732.35 192.14C1731.89 193.552 1731.03 195.385 1729.77 197.638C1728.55 199.89 1726.77 202.888 1724.44 206.63C1722.23 210.219 1720.19 213.865 1718.31 217.569C1716.44 221.234 1714.67 225.11 1712.99 229.195C1711.35 233.242 1709.7 237.691 1708.06 242.54H1703.37ZM1698.78 270.203C1696.61 270.203 1694.81 269.515 1693.4 268.141C1691.99 266.766 1691.28 265.029 1691.28 262.929C1691.28 260.562 1692.18 258.538 1693.97 256.858C1695.77 255.14 1697.91 254.281 1700.39 254.281C1702.68 254.281 1704.59 254.987 1706.11 256.4C1707.68 257.774 1708.46 259.493 1708.46 261.554C1708.46 263.082 1708 264.495 1707.09 265.793C1706.21 267.091 1705.03 268.16 1703.54 269C1702.09 269.802 1700.5 270.203 1698.78 270.203Z" fill="#CAAC4C"/>
</svg>
